  0
SECTION
  2
HEADER
  9
$ACADVER
  1
AC1032
  9
$ACADMAINTVER
 90
      228
  9
$DWGCODEPAGE
  3
ANSI_932
  9
$REQUIREDVERSIONS
160
                 0
  9
$INSBASE
 10
0.0
 20
0.0
 30
0.0
  9
$EXTMIN
 10
1.000000000000000E+20
 20
1.000000000000000E+20
 30
1.000000000000000E+20
  9
$EXTMAX
 10
-1.000000000000000E+20
 20
-1.000000000000000E+20
 30
-1.000000000000000E+20
  9
$LIMMIN
 10
0.0
 20
0.0
  9
$LIMMAX
 10
12.0
 20
9.0
  9
$ORTHOMODE
 70
     0
  9
$REGENMODE
 70
     1
  9
$FILLMODE
 70
     1
  9
$QTEXTMODE
 70
     0
  9
$MIRRTEXT
 70
     0
  9
$LTSCALE
 40
1.0
  9
$ATTMODE
 70
     1
  9
$TEXTSIZE
 40
0.2
  9
$TRACEWID
 40
0.05
  9
$TEXTSTYLE
  7
Standard
  9
$CLAYER
  8
0
  9
$CELTYPE
  6
ByLayer
  9
$CECOLOR
 62
   256
  9
$CELTSCALE
 40
1.0
  9
$DISPSILH
 70
     0
  9
$DIMSCALE
 40
1.0
  9
$DIMASZ
 40
0.18
  9
$DIMEXO
 40
0.0625
  9
$DIMDLI
 40
0.38
  9
$DIMRND
 40
0.0
  9
$DIMDLE
 40
0.0
  9
$DIMEXE
 40
0.18
  9
$DIMTP
 40
0.0
  9
$DIMTM
 40
0.0
  9
$DIMTXT
 40
0.18
  9
$DIMCEN
 40
0.09
  9
$DIMTSZ
 40
0.0
  9
$DIMTOL
 70
     0
  9
$DIMLIM
 70
     0
  9
$DIMTIH
 70
     1
  9
$DIMTOH
 70
     1
  9
$DIMSE1
 70
     0
  9
$DIMSE2
 70
     0
  9
$DIMTAD
 70
     0
  9
$DIMZIN
 70
     0
  9
$DIMBLK
  1

  9
$DIMASO
 70
     1
  9
$DIMSHO
 70
     1
  9
$DIMPOST
  1

  9
$DIMAPOST
  1

  9
$DIMALT
 70
     0
  9
$DIMALTD
 70
     2
  9
$DIMALTF
 40
25.4
  9
$DIMLFAC
 40
1.0
  9
$DIMTOFL
 70
     0
  9
$DIMTVP
 40
0.0
  9
$DIMTIX
 70
     0
  9
$DIMSOXD
 70
     0
  9
$DIMSAH
 70
     0
  9
$DIMBLK1
  1

  9
$DIMBLK2
  1

  9
$DIMSTYLE
  2
Standard
  9
$DIMCLRD
 70
     0
  9
$DIMCLRE
 70
     0
  9
$DIMCLRT
 70
     0
  9
$DIMTFAC
 40
1.0
  9
$DIMGAP
 40
0.09
  9
$DIMJUST
 70
     0
  9
$DIMSD1
 70
     0
  9
$DIMSD2
 70
     0
  9
$DIMTOLJ
 70
     1
  9
$DIMTZIN
 70
     0
  9
$DIMALTZ
 70
     0
  9
$DIMALTTZ
 70
     0
  9
$DIMUPT
 70
     0
  9
$DIMDEC
 70
     4
  9
$DIMTDEC
 70
     4
  9
$DIMALTU
 70
     2
  9
$DIMALTTD
 70
     2
  9
$DIMTXSTY
  7
Standard
  9
$DIMAUNIT
 70
     0
  9
$DIMADEC
 70
     0
  9
$DIMALTRND
 40
0.0
  9
$DIMAZIN
 70
     0
  9
$DIMDSEP
 70
    46
  9
$DIMATFIT
 70
     3
  9
$DIMFRAC
 70
     0
  9
$DIMLDRBLK
  1

  9
$DIMLUNIT
 70
     2
  9
$DIMLWD
 70
    -2
  9
$DIMLWE
 70
    -2
  9
$DIMTMOVE
 70
     0
  9
$DIMFXL
 40
1.0
  9
$DIMFXLON
 70
     0
  9
$DIMJOGANG
 40
0.7853981633974483
  9
$DIMTFILL
 70
     0
  9
$DIMTFILLCLR
 70
     0
  9
$DIMARCSYM
 70
     0
  9
$DIMLTYPE
  6

  9
$DIMLTEX1
  6

  9
$DIMLTEX2
  6

  9
$DIMTXTDIRECTION
 70
     0
  9
$LUNITS
 70
     2
  9
$LUPREC
 70
     4
  9
$SKETCHINC
 40
0.1
  9
$FILLETRAD
 40
0.0
  9
$AUNITS
 70
     0
  9
$AUPREC
 70
     0
  9
$MENU
  1
.
  9
$ELEVATION
 40
0.0
  9
$PELEVATION
 40
0.0
  9
$THICKNESS
 40
0.0
  9
$LIMCHECK
 70
     0
  9
$CHAMFERA
 40
0.0
  9
$CHAMFERB
 40
0.0
  9
$CHAMFERC
 40
0.0
  9
$CHAMFERD
 40
0.0
  9
$SKPOLY
 70
     0
  9
$TDCREATE
 40
2460266.569421297
  9
$TDUCREATE
 40
2460266.194421297
  9
$TDUPDATE
 40
2460266.569421297
  9
$TDUUPDATE
 40
2460266.194421297
  9
$TDINDWG
 40
0.0000000000
  9
$TDUSRTIMER
 40
0.0000000000
  9
$USRTIMER
 70
     1
  9
$ANGBASE
 50
0.0
  9
$ANGDIR
 70
     0
  9
$PDMODE
 70
     0
  9
$PDSIZE
 40
0.0
  9
$PLINEWID
 40
0.0
  9
$SPLFRAME
 70
     0
  9
$SPLINETYPE
 70
     6
  9
$SPLINESEGS
 70
     8
  9
$HANDSEED
  5
FF
  9
$SURFTAB1
 70
     6
  9
$SURFTAB2
 70
     6
  9
$SURFTYPE
 70
     6
  9
$SURFU
 70
     6
  9
$SURFV
 70
     6
  9
$UCSBASE
  2

  9
$UCSNAME
  2

  9
$UCSORG
 10
0.0
 20
0.0
 30
0.0
  9
$UCSXDIR
 10
1.0
 20
0.0
 30
0.0
  9
$UCSYDIR
 10
0.0
 20
1.0
 30
0.0
  9
$UCSORTHOREF
  2

  9
$UCSORTHOVIEW
 70
     0
  9
$UCSORGTOP
 10
0.0
 20
0.0
 30
0.0
  9
$UCSORGBOTTOM
 10
0.0
 20
0.0
 30
0.0
  9
$UCSORGLEFT
 10
0.0
 20
0.0
 30
0.0
  9
$UCSORGRIGHT
 10
0.0
 20
0.0
 30
0.0
  9
$UCSORGFRONT
 10
0.0
 20
0.0
 30
0.0
  9
$UCSORGBACK
 10
0.0
 20
0.0
 30
0.0
  9
$PUCSBASE
  2

  9
$PUCSNAME
  2

  9
$PUCSORG
 10
0.0
 20
0.0
 30
0.0
  9
$PUCSXDIR
 10
1.0
 20
0.0
 30
0.0
  9
$PUCSYDIR
 10
0.0
 20
1.0
 30
0.0
  9
$PUCSORTHOREF
  2

  9
$PUCSORTHOVIEW
 70
     0
  9
$PUCSORGTOP
 10
0.0
 20
0.0
 30
0.0
  9
$PUCSORGBOTTOM
 10
0.0
 20
0.0
 30
0.0
  9
$PUCSORGLEFT
 10
0.0
 20
0.0
 30
0.0
  9
$PUCSORGRIGHT
 10
0.0
 20
0.0
 30
0.0
  9
$PUCSORGFRONT
 10
0.0
 20
0.0
 30
0.0
  9
$PUCSORGBACK
 10
0.0
 20
0.0
 30
0.0
  9
$USERI1
 70
     0
  9
$USERI2
 70
     0
  9
$USERI3
 70
     0
  9
$USERI4
 70
     0
  9
$USERI5
 70
     0
  9
$USERR1
 40
0.0
  9
$USERR2
 40
0.0
  9
$USERR3
 40
0.0
  9
$USERR4
 40
0.0
  9
$USERR5
 40
0.0
  9
$WORLDVIEW
 70
     1
  9
$SHADEDGE
 70
     3
  9
$SHADEDIF
 70
    70
  9
$TILEMODE
 70
     1
  9
$MAXACTVP
 70
    64
  9
$PINSBASE
 10
0.0
 20
0.0
 30
0.0
  9
$PLIMCHECK
 70
     0
  9
$PEXTMIN
 10
1.000000000000000E+20
 20
1.000000000000000E+20
 30
1.000000000000000E+20
  9
$PEXTMAX
 10
-1.000000000000000E+20
 20
-1.000000000000000E+20
 30
-1.000000000000000E+20
  9
$PLIMMIN
 10
0.0
 20
0.0
  9
$PLIMMAX
 10
12.0
 20
9.0
  9
$UNITMODE
 70
     0
  9
$VISRETAIN
 70
     1
  9
$PLINEGEN
 70
     0
  9
$PSLTSCALE
 70
     1
  9
$TREEDEPTH
 70
  3020
  9
$CMLSTYLE
  2
Standard
  9
$CMLJUST
 70
     0
  9
$CMLSCALE
 40
1.0
  9
$PROXYGRAPHICS
 70
     1
  9
$MEASUREMENT
 70
     0
  9
$CELWEIGHT
370
    -1
  9
$ENDCAPS
280
     0
  9
$JOINSTYLE
280
     0
  9
$LWDISPLAY
290
     1
  9
$INSUNITS
 70
     4
  9
$HYPERLINKBASE
  1

  9
$STYLESHEET
  1

  9
$XEDIT
290
     1
  9
$CEPSNTYPE
380
     0
  9
$PSTYLEMODE
290
     1
  9
$FINGERPRINTGUID
  2
{5DFBEE77-E7B3-5840-8D4F-CAD1B0F9C760}
  9
$VERSIONGUID
  2
{5CF4FCCA-C6B1-6343-95E5-C2DFEAF5DB14}
  9
$EXTNAMES
290
     1
  9
$PSVPSCALE
 40
0.0
  9
$OLESTARTUP
290
     0
  9
$SORTENTS
280
   127
  9
$INDEXCTL
280
     0
  9
$HIDETEXT
280
     1
  9
$XCLIPFRAME
280
     2
  9
$HALOGAP
280
     0
  9
$OBSCOLOR
 70
   257
  9
$OBSLTYPE
280
     0
  9
$INTERSECTIONDISPLAY
280
     0
  9
$INTERSECTIONCOLOR
 70
   257
  9
$DIMASSOC
280
     2
  9
$PROJECTNAME
  1

  9
$CAMERADISPLAY
290
     0
  9
$LENSLENGTH
 40
50.0
  9
$CAMERAHEIGHT
 40
0.0
  9
$STEPSPERSEC
 40
2.0
  9
$STEPSIZE
 40
6.0
  9
$3DDWFPREC
 40
2.0
  9
$PSOLWIDTH
 40
0.25
  9
$PSOLHEIGHT
 40
4.0
  9
$LOFTANG1
 40
1.570796326794896
  9
$LOFTANG2
 40
1.570796326794896
  9
$LOFTMAG1
 40
0.0
  9
$LOFTMAG2
 40
0.0
  9
$LOFTPARAM
 70
     7
  9
$LOFTNORMALS
280
     1
  9
$LATITUDE
 40
37.795
  9
$LONGITUDE
 40
-122.394
  9
$NORTHDIRECTION
 40
0.0
  9
$TIMEZONE
 70
 -8000
  9
$LIGHTGLYPHDISPLAY
280
     1
  9
$TILEMODELIGHTSYNCH
280
     1
  9
$CMATERIAL
347
11
  9
$SOLIDHIST
280
     0
  9
$SHOWHIST
280
     1
  9
$DWFFRAME
280
     2
  9
$DGNFRAME
280
     0
  9
$REALWORLDSCALE
290
     1
  9
$INTERFERECOLOR
 62
     1
  9
$INTERFEREOBJVS
345
33
  9
$INTERFEREVPVS
346
30
  9
$CSHADOW
280
     0
  9
$SHADOWPLANELOCATION
 40
0.0
  0
ENDSEC
  0
SECTION
  2
CLASSES
  0
CLASS
  1
ACDBDICTIONARYWDFLT
  2
AcDbDictionaryWithDefault
  3
ObjectDBX Classes
 90
        0
 91
        1
280
     0
281
     0
  0
CLASS
  1
MATERIAL
  2
AcDbMaterial
  3
ObjectDBX Classes
 90
     1153
 91
        3
280
     0
281
     0
  0
CLASS
  1
VISUALSTYLE
  2
AcDbVisualStyle
  3
ObjectDBX Classes
 90
     4095
 91
       24
280
     0
281
     0
  0
CLASS
  1
SCALE
  2
AcDbScale
  3
ObjectDBX Classes
 90
     1153
 91
       17
280
     0
281
     0
  0
CLASS
  1
TABLESTYLE
  2
AcDbTableStyle
  3
ObjectDBX Classes
 90
     4095
 91
        1
280
     0
281
     0
  0
CLASS
  1
MLEADERSTYLE
  2
AcDbMLeaderStyle
  3
ACDB_MLEADERSTYLE_CLASS
 90
     4095
 91
        1
280
     0
281
     0
  0
CLASS
  1
ACDBSECTIONVIEWSTYLE
  2
AcDbSectionViewStyle
  3
ObjectDBX Classes
 90
     1025
 91
        1
280
     0
281
     0
  0
CLASS
  1
ACDBDETAILVIEWSTYLE
  2
AcDbDetailViewStyle
  3
ObjectDBX Classes
 90
     1025
 91
        1
280
     0
281
     0
  0
CLASS
  1
DICTIONARYVAR
  2
AcDbDictionaryVar
  3
ObjectDBX Classes
 90
        0
 91
        5
280
     0
281
     0
  0
CLASS
  1
CELLSTYLEMAP
  2
AcDbCellStyleMap
  3
ObjectDBX Classes
 90
     1152
 91
        1
280
     0
281
     0
  0
ENDSEC
  0
SECTION
  2
TABLES
  0
TABLE
  2
VPORT
  5
8
330
0
100
AcDbSymbolTable
 70
     1
  0
VPORT
  5
57
330
8
100
AcDbSymbolTableRecord
100
AcDbViewportTableRecord
  2
*Active
 70
     0
 10
0.0
 20
0.0
 11
1.0
 21
1.0
 12
0.0
 22
0.0
 13
0.0
 23
0.0
 14
1.0
 24
1.0
 15
0.0
 25
0.0
 16
0.0
 26
0.0
 36
1.0
 17
199.9999999499937
 27
-199.9999999499937
 37
0.0
 40
407.9999998979871
 41
1.0
 42
50.0
 43
0.0
 44
0.0
 50
0.0
 51
0.0
 71
     0
 72
   100
 73
     1
 74
     1
 75
     0
 76
     0
 77
     0
 78
     0
281
     0
 65
     1
110
0.0
120
0.0
130
0.0
111
1.0
121
0.0
131
0.0
112
0.0
122
1.0
132
0.0
 79
     0
146
0.0
 60
     3
 61
     5
292
     1
282
     1
141
0.0
142
0.0
 63
   250
421
  3355443
  0
ENDTAB
  0
TABLE
  2
LTYPE
  5
5
330
0
100
AcDbSymbolTable
 70
     5
  0
LTYPE
  5
5B
330
5
100
AcDbSymbolTableRecord
100
AcDbLinetypeTableRecord
  2
ByBlock
 70
     0
  3

 72
    65
 73
     0
 40
0.0
  0
LTYPE
  5
5C
330
5
100
AcDbSymbolTableRecord
100
AcDbLinetypeTableRecord
  2
ByLayer
 70
     0
  3

 72
    65
 73
     0
 40
0.0
  0
LTYPE
  5
5D
330
5
100
AcDbSymbolTableRecord
100
AcDbLinetypeTableRecord
  2
Continuous
 70
     0
  3
Solid line
 72
    65
 73
     0
 40
0.0
  0
LTYPE
  5
7A
330
5
100
AcDbSymbolTableRecord
100
AcDbLinetypeTableRecord
  2
AI-Linetype-0
 70
     0
  3
Adobe Illustrator Linetype No. 0
 72
    65
 73
     2
 40
2.1166666661375
 49
1.05833333306875
 74
     0
 49
-1.05833333306875
 74
     0
  0
LTYPE
  5
7C
330
5
100
AcDbSymbolTableRecord
100
AcDbLinetypeTableRecord
  2
AI-Linetype-1
 70
     0
  3
Adobe Illustrator Linetype No. 1
 72
    65
 73
     2
 40
2.1166666661375
 49
1.05833333306875
 74
     0
 49
-1.05833333306875
 74
     0
  0
LTYPE
  5
84
330
5
100
AcDbSymbolTableRecord
100
AcDbLinetypeTableRecord
  2
AI-Linetype-2
 70
     0
  3
Adobe Illustrator Linetype No. 2
 72
    65
 73
     2
 40
2.1166666661375
 49
1.05833333306875
 74
     0
 49
-1.05833333306875
 74
     0
  0
LTYPE
  5
86
330
5
100
AcDbSymbolTableRecord
100
AcDbLinetypeTableRecord
  2
AI-Linetype-3
 70
     0
  3
Adobe Illustrator Linetype No. 3
 72
    65
 73
     2
 40
2.1166666661375
 49
1.05833333306875
 74
     0
 49
-1.05833333306875
 74
     0
  0
ENDTAB
  0
TABLE
  2
LAYER
  5
2
330
0
100
AcDbSymbolTable
 70
     9
  0
LAYER
  5
54
330
2
100
AcDbSymbolTableRecord
100
AcDbLayerTableRecord
  2
0
 70
     0
 62
     7
  6
Continuous
370
    -3
390
F
347
21
348
0
  0
LAYER
  5
78
330
2
100
AcDbSymbolTableRecord
100
AcDbLayerTableRecord
  2
layer_layout
 70
     1
 62
     7
  6
Continuous
370
     0
390
F
347
21
348
0
  0
LAYER
  5
8A
330
2
100
AcDbSymbolTableRecord
100
AcDbLayerTableRecord
  2
keylayout
 70
     5
 62
     7
  6
Continuous
370
     0
390
F
347
21
348
0
  0
LAYER
  5
B1
330
2
100
AcDbSymbolTableRecord
100
AcDbLayerTableRecord
  2
baseplate
 70
     1
 62
     7
  6
Continuous
370
     0
390
F
347
21
348
0
  0
LAYER
  5
B2
330
2
100
AcDbSymbolTableRecord
100
AcDbLayerTableRecord
  2
bottomplate
 70
     5
 62
     7
  6
Continuous
370
     0
390
F
347
21
348
0
  0
LAYER
  5
BC
330
2
100
AcDbSymbolTableRecord
100
AcDbLayerTableRecord
  2
middleplate3
 70
     1
 62
     7
  6
Continuous
370
     0
390
F
347
21
348
0
  0
LAYER
  5
C8
330
2
100
AcDbSymbolTableRecord
100
AcDbLayerTableRecord
  2
middleplate2
 70
     5
 62
     7
  6
Continuous
370
     0
390
F
347
21
348
0
  0
LAYER
  5
D3
330
2
100
AcDbSymbolTableRecord
100
AcDbLayerTableRecord
  2
mainkeys
 70
     0
 62
     7
  6
Continuous
370
     0
390
F
347
21
348
0
  0
LAYER
  5
EF
330
2
100
AcDbSymbolTableRecord
100
AcDbLayerTableRecord
  2
sumkeys
 70
     1
 62
     7
  6
Continuous
370
     0
390
F
347
21
348
0
  0
ENDTAB
  0
TABLE
  2
STYLE
  5
3
330
0
100
AcDbSymbolTable
 70
     2
  0
STYLE
  5
55
330
3
100
AcDbSymbolTableRecord
100
AcDbTextStyleTableRecord
  2
Standard
 70
     0
 40
0.0
 41
1.0
 50
0.0
 71
     0
 42
0.2
  3
txt
  4

  0
STYLE
  5
5A
330
3
100
AcDbSymbolTableRecord
100
AcDbTextStyleTableRecord
  2
Annotative
 70
     0
 40
0.0
 41
1.0
 50
0.0
 71
     0
 42
0.2
  3
txt
  4

1001
AcadAnnotative
1000
AnnotativeData
1002
{
1070
     1
1070
     1
1002
}
  0
ENDTAB
  0
TABLE
  2
VIEW
  5
6
330
0
100
AcDbSymbolTable
 70
     0
  0
ENDTAB
  0
TABLE
  2
UCS
  5
7
330
0
100
AcDbSymbolTable
 70
     0
  0
ENDTAB
  0
TABLE
  2
APPID
  5
9
330
0
100
AcDbSymbolTable
 70
     2
  0
APPID
  5
56
330
9
100
AcDbSymbolTableRecord
100
AcDbRegAppTableRecord
  2
ACAD
 70
     0
  0
APPID
  5
5E
330
9
100
AcDbSymbolTableRecord
100
AcDbRegAppTableRecord
  2
AcadAnnotative
 70
     0
  0
ENDTAB
  0
TABLE
  2
DIMSTYLE
  5
A
330
0
100
AcDbSymbolTable
 70
     2
100
AcDbDimStyleTable
 71
     0
  0
DIMSTYLE
105
58
330
A
100
AcDbSymbolTableRecord
100
AcDbDimStyleTableRecord
  2
Standard
 70
     0
340
55
  0
DIMSTYLE
105
59
330
A
100
AcDbSymbolTableRecord
100
AcDbDimStyleTableRecord
  2
Annotative
 70
     0
340
55
1001
AcadAnnotative
1000
AnnotativeData
1002
{
1070
     1
1070
     1
1002
}
  0
ENDTAB
  0
TABLE
  2
BLOCK_RECORD
  5
1
330
0
100
AcDbSymbolTable
 70
     1
  0
BLOCK_RECORD
  5
70
330
1
100
AcDbSymbolTableRecord
100
AcDbBlockTableRecord
  2
*Model_Space
340
73
 70
     0
280
     1
281
     0
  0
BLOCK_RECORD
  5
6C
330
1
100
AcDbSymbolTableRecord
100
AcDbBlockTableRecord
  2
*Paper_Space
340
6F
 70
     0
280
     1
281
     0
  0
BLOCK_RECORD
  5
74
330
1
100
AcDbSymbolTableRecord
100
AcDbBlockTableRecord
  2
*Paper_Space0
340
77
 70
     0
280
     1
281
     0
  0
ENDTAB
  0
ENDSEC
  0
SECTION
  2
BLOCKS
  0
BLOCK
  5
71
330
70
100
AcDbEntity
  8
0
100
AcDbBlockBegin
  2
*Model_Space
 70
     0
 10
0.0
 20
0.0
 30
0.0
  3
*Model_Space
  1

  0
ENDBLK
  5
72
330
70
100
AcDbEntity
  8
0
100
AcDbBlockEnd
  0
BLOCK
  5
6D
330
6C
100
AcDbEntity
 67
     1
  8
0
100
AcDbBlockBegin
  2
*Paper_Space
 70
     0
 10
0.0
 20
0.0
 30
0.0
  3
*Paper_Space
  1

  0
ENDBLK
  5
6E
330
6C
100
AcDbEntity
 67
     1
  8
0
100
AcDbBlockEnd
  0
BLOCK
  5
75
330
74
100
AcDbEntity
 67
     1
  8
0
100
AcDbBlockBegin
  2
*Paper_Space0
 70
     0
 10
0.0
 20
0.0
 30
0.0
  3
*Paper_Space0
  1

  0
ENDBLK
  5
76
330
74
100
AcDbEntity
 67
     1
  8
0
100
AcDbBlockEnd
  0
ENDSEC
  0
SECTION
  2
ENTITIES
  0
LINE
  5
79
330
70
100
AcDbEntity
  8
layer_layout
  6
AI-Linetype-0
 62
   253
420
 10461344
370
     9
100
AcDbLine
 10
147.375002752157
 20
-252.4999849380821
 30
0.0
 11
147.375002752157
 21
-280.1205673058559
 31
0.0
  0
LINE
  5
7B
330
70
100
AcDbEntity
  8
layer_layout
  6
AI-Linetype-1
 62
   253
420
 10461344
370
     9
100
AcDbLine
 10
252.4999875603018
 20
-252.4999875603018
 30
0.0
 11
252.4999875603018
 21
-280.1205673058559
 31
0.0
  0
LWPOLYLINE
  5
7D
330
70
100
AcDbEntity
  8
layer_layout
 62
   166
420
  1908872
370
     9
100
AcDbPolyline
 90
        4
 70
     1
 43
0.0
 10
252.4999875603018
 20
-282.1205673053555
 10
147.375002752157
 20
-282.1205673053555
 10
147.375002752157
 20
-280.1205673058559
 10
252.4999875603018
 20
-280.1205673058559
  0
LWPOLYLINE
  5
7E
330
70
100
AcDbEntity
  8
layer_layout
 62
   142
420
    41193
370
     9
100
AcDbPolyline
 90
        4
 70
     1
 43
0.0
 10
252.4999875603018
 20
-285.1205673046048
 10
147.375002752157
 20
-285.1205673046048
 10
147.375002752157
 20
-282.1205673053555
 10
252.4999875603018
 20
-282.1205673053555
  0
LWPOLYLINE
  5
7F
330
70
100
AcDbEntity
  8
layer_layout
 62
   223
420
 12615344
370
     9
100
AcDbPolyline
 90
        4
 70
     1
 43
0.0
 10
252.4999875603018
 20
-287.1205673041043
 10
147.375002752157
 20
-287.1205673041043
 10
147.375002752157
 20
-285.1205673046048
 10
252.4999875603018
 20
-285.1205673046048
  0
LWPOLYLINE
  5
80
330
70
100
AcDbEntity
  8
layer_layout
 62
   206
420
  6297990
370
     9
100
AcDbPolyline
 90
        4
 70
     1
 43
0.0
 10
252.4999875603018
 20
-290.1205673033537
 10
147.375002752157
 20
-290.1205673033537
 10
147.375002752157
 20
-287.1205673041043
 10
252.4999875603018
 20
-287.1205673041043
  0
LWPOLYLINE
  5
81
330
70
100
AcDbEntity
  8
layer_layout
 62
   206
420
  6297990
370
     9
100
AcDbPolyline
 90
        4
 70
     1
 43
0.0
 10
252.4999875603018
 20
-293.1205673026029
 10
147.375002752157
 20
-293.1205673026029
 10
147.375002752157
 20
-290.1205673033537
 10
252.4999875603018
 20
-290.1205673033537
  0
LWPOLYLINE
  5
82
330
70
100
AcDbEntity
  8
layer_layout
 62
    20
420
 15218728
370
     9
100
AcDbPolyline
 90
        4
 70
     1
 43
0.0
 10
252.4999875603018
 20
-295.1205673021025
 10
147.375002752157
 20
-295.1205673021025
 10
147.375002752157
 20
-293.1205673026029
 10
252.4999875603018
 20
-293.1205673026029
  0
LINE
  5
83
330
70
100
AcDbEntity
  8
layer_layout
  6
AI-Linetype-2
 62
   253
420
 10461344
370
     9
100
AcDbLine
 10
204.499999948875
 20
-252.4999875603018
 30
0.0
 11
204.499999948875
 21
-280.1205673058559
 31
0.0
  0
LINE
  5
85
330
70
100
AcDbEntity
  8
layer_layout
  6
AI-Linetype-3
 62
   253
420
 10461344
370
     9
100
AcDbLine
 10
176.499999955875
 20
-252.4999875603018
 30
0.0
 11
176.499999955875
 21
-280.1205673058559
 31
0.0
  0
LINE
  5
87
330
70
100
AcDbEntity
  8
layer_layout
 62
   223
420
 12615344
370
     9
100
AcDbLine
 10
204.499999948875
 20
-285.1205673046048
 30
0.0
 11
204.499999948875
 21
-287.1205673041043
 31
0.0
  0
LINE
  5
88
330
70
100
AcDbEntity
  8
layer_layout
 62
    20
420
 15218728
370
     9
100
AcDbLine
 10
204.499999948875
 20
-293.1205673026029
 30
0.0
 11
204.499999948875
 21
-295.1205673021025
 31
0.0
  0
LINE
  5
89
330
70
100
AcDbEntity
  8
layer_layout
 62
   206
420
  6297990
370
     9
100
AcDbLine
 10
204.499999948875
 20
-287.1205673041043
 30
0.0
 11
204.499999948875
 21
-293.1205673026029
 31
0.0
  0
LWPOLYLINE
  5
8B
330
70
100
AcDbEntity
  8
keylayout
100
AcDbPolyline
 90
        4
 70
     1
 43
0.0
 10
170.500011976023
 20
-189.000006266441
 10
152.5000119805229
 20
-189.000006266441
 10
152.5000119805229
 20
-154.0000062751909
 10
170.500011976023
 20
-154.0000062751909
  0
HATCH
  5
8C
330
70
100
AcDbEntity
  8
keylayout
 62
   251
420
  5855063
440
 33554687
100
AcDbHatch
 10
0.0
 20
0.0
 30
0.0
210
0.0
220
0.0
230
1.0
  2
SOLID
 70
     1
 71
     1
 91
        1
 92
        1
 93
        4
 72
     1
 10
170.500011976023
 20
-189.000006266441
 11
152.5000119805229
 21
-189.000006266441
 72
     1
 10
152.5000119805229
 20
-189.000006266441
 11
152.5000119805229
 21
-154.0000062751909
 72
     1
 10
152.5000119805229
 20
-154.0000062751909
 11
170.500011976023
 21
-154.0000062751909
 72
     1
 10
170.500011976023
 20
-154.0000062751909
 11
170.500011976023
 21
-189.000006266441
 97
        1
330
8B
 75
     2
 76
     1
 98
        1
 10
0.0
 20
0.0
450
        0
451
        0
460
0.0
461
0.0
452
        0
462
0.0
453
        0
470

  0
LWPOLYLINE
  5
8D
330
70
100
AcDbEntity
  8
keylayout
100
AcDbPolyline
 90
        4
 70
     1
 43
0.0
 10
233.4999814426999
 20
-160.2500093182699
 10
233.4999814426999
 20
-154.25000931977
 10
247.4999814392006
 20
-154.25000931977
 10
247.4999814392006
 20
-160.2500093182699
  0
HATCH
  5
8E
330
70
100
AcDbEntity
  8
keylayout
 62
   252
420
  9013641
440
 33554687
100
AcDbHatch
 10
0.0
 20
0.0
 30
0.0
210
0.0
220
0.0
230
1.0
  2
SOLID
 70
     1
 71
     1
 91
        1
 92
        1
 93
        4
 72
     1
 10
233.4999814426999
 20
-160.2500093182699
 11
233.4999814426999
 21
-154.25000931977
 72
     1
 10
233.4999814426999
 20
-154.25000931977
 11
247.4999814392006
 21
-154.25000931977
 72
     1
 10
247.4999814392006
 20
-154.25000931977
 11
247.4999814392006
 21
-160.2500093182699
 72
     1
 10
247.4999814392006
 20
-160.2500093182699
 11
233.4999814426999
 21
-160.2500093182699
 97
        1
330
8D
 75
     2
 76
     1
 98
        1
 10
0.0
 20
0.0
450
        0
451
        0
460
0.0
461
0.0
452
        0
462
0.0
453
        0
470

  0
LWPOLYLINE
  5
8F
330
70
100
AcDbEntity
  8
keylayout
 62
     8
420
  7500145
370
     9
100
AcDbPolyline
 90
        4
 70
     1
 43
0.0
 10
228.4999875474657
 20
-195.2499971309575
 10
209.4999936557308
 20
-195.2499971309575
 10
209.4999936557308
 20
-176.2500032249878
 10
228.4999875474657
 20
-176.2500032249878
  0
HATCH
  5
90
330
70
100
AcDbEntity
  8
keylayout
 62
   254
420
 14474717
440
 33554687
100
AcDbHatch
 10
0.0
 20
0.0
 30
0.0
210
0.0
220
0.0
230
1.0
  2
SOLID
 70
     1
 71
     1
 91
        1
 92
        1
 93
        4
 72
     1
 10
228.4999875474657
 20
-195.2499971309575
 11
209.4999936557308
 21
-195.2499971309575
 72
     1
 10
209.4999936557308
 20
-195.2499971309575
 11
209.4999936557308
 21
-176.2500032249878
 72
     1
 10
209.4999936557308
 20
-176.2500032249878
 11
228.4999875474657
 21
-176.2500032249878
 72
     1
 10
228.4999875474657
 20
-176.2500032249878
 11
228.4999875474657
 21
-195.2499971309575
 97
        1
330
8F
 75
     2
 76
     1
 98
        1
 10
0.0
 20
0.0
450
        0
451
        0
460
0.0
461
0.0
452
        0
462
0.0
453
        0
470

  0
LWPOLYLINE
  5
91
330
70
100
AcDbEntity
  8
keylayout
 62
     8
420
  7500145
370
     9
100
AcDbPolyline
 90
        4
 70
     1
 43
0.0
 10
228.4999875474657
 20
-214.2499910369269
 10
209.4999936557308
 20
-214.2499910369269
 10
209.4999936557308
 20
-195.2499971309575
 10
228.4999875474657
 20
-195.2499971309575
  0
HATCH
  5
92
330
70
100
AcDbEntity
  8
keylayout
 62
   254
420
 14474717
440
 33554687
100
AcDbHatch
 10
0.0
 20
0.0
 30
0.0
210
0.0
220
0.0
230
1.0
  2
SOLID
 70
     1
 71
     1
 91
        1
 92
        1
 93
        4
 72
     1
 10
228.4999875474657
 20
-214.2499910369269
 11
209.4999936557308
 21
-214.2499910369269
 72
     1
 10
209.4999936557308
 20
-214.2499910369269
 11
209.4999936557308
 21
-195.2499971309575
 72
     1
 10
209.4999936557308
 20
-195.2499971309575
 11
228.4999875474657
 21
-195.2499971309575
 72
     1
 10
228.4999875474657
 20
-195.2499971309575
 11
228.4999875474657
 21
-214.2499910369269
 97
        1
330
91
 75
     2
 76
     1
 98
        1
 10
0.0
 20
0.0
450
        0
451
        0
460
0.0
461
0.0
452
        0
462
0.0
453
        0
470

  0
LWPOLYLINE
  5
93
330
70
100
AcDbEntity
  8
keylayout
 62
     8
420
  7500145
370
     9
100
AcDbPolyline
 90
        4
 70
     1
 43
0.0
 10
228.4999875474657
 20
-176.2500032249878
 10
209.4999936557308
 20
-176.2500032249878
 10
209.4999936557308
 20
-157.25000931902
 10
228.4999875474657
 20
-157.25000931902
  0
HATCH
  5
94
330
70
100
AcDbEntity
  8
keylayout
 62
   254
420
 14474717
440
 33554687
100
AcDbHatch
 10
0.0
 20
0.0
 30
0.0
210
0.0
220
0.0
230
1.0
  2
SOLID
 70
     1
 71
     1
 91
        1
 92
        1
 93
        4
 72
     1
 10
228.4999875474657
 20
-176.2500032249878
 11
209.4999936557308
 21
-176.2500032249878
 72
     1
 10
209.4999936557308
 20
-176.2500032249878
 11
209.4999936557308
 21
-157.25000931902
 72
     1
 10
209.4999936557308
 20
-157.25000931902
 11
228.4999875474657
 21
-157.25000931902
 72
     1
 10
228.4999875474657
 20
-157.25000931902
 11
228.4999875474657
 21
-176.2500032249878
 97
        1
330
93
 75
     2
 76
     1
 98
        1
 10
0.0
 20
0.0
450
        0
451
        0
460
0.0
461
0.0
452
        0
462
0.0
453
        0
470

  0
LWPOLYLINE
  5
95
330
70
100
AcDbEntity
  8
keylayout
 62
     8
420
  7500145
370
     9
100
AcDbPolyline
 90
        4
 70
     1
 43
0.0
 10
190.499999763994
 20
-195.2499971309575
 10
171.5000058722578
 20
-195.2499971309575
 10
171.5000058722578
 20
-176.2500032249878
 10
190.499999763994
 20
-176.2500032249878
  0
HATCH
  5
96
330
70
100
AcDbEntity
  8
keylayout
 62
   254
420
 14474717
440
 33554687
100
AcDbHatch
 10
0.0
 20
0.0
 30
0.0
210
0.0
220
0.0
230
1.0
  2
SOLID
 70
     1
 71
     1
 91
        1
 92
        1
 93
        4
 72
     1
 10
190.499999763994
 20
-195.2499971309575
 11
171.5000058722578
 21
-195.2499971309575
 72
     1
 10
171.5000058722578
 20
-195.2499971309575
 11
171.5000058722578
 21
-176.2500032249878
 72
     1
 10
171.5000058722578
 20
-176.2500032249878
 11
190.499999763994
 21
-176.2500032249878
 72
     1
 10
190.499999763994
 20
-176.2500032249878
 11
190.499999763994
 21
-195.2499971309575
 97
        1
330
95
 75
     2
 76
     1
 98
        1
 10
0.0
 20
0.0
450
        0
451
        0
460
0.0
461
0.0
452
        0
462
0.0
453
        0
470

  0
LWPOLYLINE
  5
97
330
70
100
AcDbEntity
  8
keylayout
 62
     8
420
  7500145
370
     9
100
AcDbPolyline
 90
        4
 70
     1
 43
0.0
 10
190.499999763994
 20
-214.2499910369269
 10
171.5000058722578
 20
-214.2499910369269
 10
171.5000058722578
 20
-195.2499971309575
 10
190.499999763994
 20
-195.2499971309575
  0
HATCH
  5
98
330
70
100
AcDbEntity
  8
keylayout
 62
   254
420
 14474717
440
 33554687
100
AcDbHatch
 10
0.0
 20
0.0
 30
0.0
210
0.0
220
0.0
230
1.0
  2
SOLID
 70
     1
 71
     1
 91
        1
 92
        1
 93
        4
 72
     1
 10
190.499999763994
 20
-214.2499910369269
 11
171.5000058722578
 21
-214.2499910369269
 72
     1
 10
171.5000058722578
 20
-214.2499910369269
 11
171.5000058722578
 21
-195.2499971309575
 72
     1
 10
171.5000058722578
 20
-195.2499971309575
 11
190.499999763994
 21
-195.2499971309575
 72
     1
 10
190.499999763994
 20
-195.2499971309575
 11
190.499999763994
 21
-214.2499910369269
 97
        1
330
97
 75
     2
 76
     1
 98
        1
 10
0.0
 20
0.0
450
        0
451
        0
460
0.0
461
0.0
452
        0
462
0.0
453
        0
470

  0
LWPOLYLINE
  5
99
330
70
100
AcDbEntity
  8
keylayout
 62
     8
420
  7500145
370
     9
100
AcDbPolyline
 90
        4
 70
     1
 43
0.0
 10
190.499999763994
 20
-176.2500032249878
 10
171.5000058722578
 20
-176.2500032249878
 10
171.5000058722578
 20
-157.25000931902
 10
190.499999763994
 20
-157.25000931902
  0
HATCH
  5
9A
330
70
100
AcDbEntity
  8
keylayout
 62
   254
420
 14474717
440
 33554687
100
AcDbHatch
 10
0.0
 20
0.0
 30
0.0
210
0.0
220
0.0
230
1.0
  2
SOLID
 70
     1
 71
     1
 91
        1
 92
        1
 93
        4
 72
     1
 10
190.499999763994
 20
-176.2500032249878
 11
171.5000058722578
 21
-176.2500032249878
 72
     1
 10
171.5000058722578
 20
-176.2500032249878
 11
171.5000058722578
 21
-157.25000931902
 72
     1
 10
171.5000058722578
 20
-157.25000931902
 11
190.499999763994
 21
-157.25000931902
 72
     1
 10
190.499999763994
 20
-157.25000931902
 11
190.499999763994
 21
-176.2500032249878
 97
        1
330
99
 75
     2
 76
     1
 98
        1
 10
0.0
 20
0.0
450
        0
451
        0
460
0.0
461
0.0
452
        0
462
0.0
453
        0
470

  0
LWPOLYLINE
  5
9B
330
70
100
AcDbEntity
  8
keylayout
 62
     8
420
  7500145
370
     9
100
AcDbPolyline
 90
        4
 70
     1
 43
0.0
 10
171.5000058722578
 20
-209.499991038114
 10
152.5000119805229
 20
-209.499991038114
 10
152.5000119805229
 20
-190.499997132144
 10
171.5000058722578
 20
-190.499997132144
  0
HATCH
  5
9C
330
70
100
AcDbEntity
  8
keylayout
 62
   254
420
 14474717
440
 33554687
100
AcDbHatch
 10
0.0
 20
0.0
 30
0.0
210
0.0
220
0.0
230
1.0
  2
SOLID
 70
     1
 71
     1
 91
        1
 92
        1
 93
        4
 72
     1
 10
171.5000058722578
 20
-209.499991038114
 11
152.5000119805229
 21
-209.499991038114
 72
     1
 10
152.5000119805229
 20
-209.499991038114
 11
152.5000119805229
 21
-190.499997132144
 72
     1
 10
152.5000119805229
 20
-190.499997132144
 11
171.5000058722578
 21
-190.499997132144
 72
     1
 10
171.5000058722578
 20
-190.499997132144
 11
171.5000058722578
 21
-209.499991038114
 97
        1
330
9B
 75
     2
 76
     1
 98
        1
 10
0.0
 20
0.0
450
        0
451
        0
460
0.0
461
0.0
452
        0
462
0.0
453
        0
470

  0
LWPOLYLINE
  5
9D
330
70
100
AcDbEntity
  8
keylayout
 62
     8
420
  7500145
370
     9
100
AcDbPolyline
 90
        4
 70
     1
 43
0.0
 10
171.5000058722578
 20
-228.4999849440824
 10
152.5000119805229
 20
-228.4999849440824
 10
152.5000119805229
 20
-209.499991038114
 10
171.5000058722578
 20
-209.499991038114
  0
HATCH
  5
9E
330
70
100
AcDbEntity
  8
keylayout
 62
   254
420
 14474717
440
 33554687
100
AcDbHatch
 10
0.0
 20
0.0
 30
0.0
210
0.0
220
0.0
230
1.0
  2
SOLID
 70
     1
 71
     1
 91
        1
 92
        1
 93
        4
 72
     1
 10
171.5000058722578
 20
-228.4999849440824
 11
152.5000119805229
 21
-228.4999849440824
 72
     1
 10
152.5000119805229
 20
-228.4999849440824
 11
152.5000119805229
 21
-209.499991038114
 72
     1
 10
152.5000119805229
 20
-209.499991038114
 11
171.5000058722578
 21
-209.499991038114
 72
     1
 10
171.5000058722578
 20
-209.499991038114
 11
171.5000058722578
 21
-228.4999849440824
 97
        1
330
9D
 75
     2
 76
     1
 98
        1
 10
0.0
 20
0.0
450
        0
451
        0
460
0.0
461
0.0
452
        0
462
0.0
453
        0
470

  0
LWPOLYLINE
  5
9F
330
70
100
AcDbEntity
  8
keylayout
 62
     8
420
  7500145
370
     9
100
AcDbPolyline
 90
        4
 70
     1
 43
0.0
 10
171.5000058722578
 20
-247.499984939332
 10
152.5000119805229
 20
-247.499984939332
 10
152.5000119805229
 20
-228.4999910333635
 10
171.5000058722578
 20
-228.4999910333635
  0
HATCH
  5
A0
330
70
100
AcDbEntity
  8
keylayout
 62
   254
420
 14474717
440
 33554687
100
AcDbHatch
 10
0.0
 20
0.0
 30
0.0
210
0.0
220
0.0
230
1.0
  2
SOLID
 70
     1
 71
     1
 91
        1
 92
        1
 93
        4
 72
     1
 10
171.5000058722578
 20
-247.499984939332
 11
152.5000119805229
 21
-247.499984939332
 72
     1
 10
152.5000119805229
 20
-247.499984939332
 11
152.5000119805229
 21
-228.4999910333635
 72
     1
 10
152.5000119805229
 20
-228.4999910333635
 11
171.5000058722578
 21
-228.4999910333635
 72
     1
 10
171.5000058722578
 20
-228.4999910333635
 11
171.5000058722578
 21
-247.499984939332
 97
        1
330
9F
 75
     2
 76
     1
 98
        1
 10
0.0
 20
0.0
450
        0
451
        0
460
0.0
461
0.0
452
        0
462
0.0
453
        0
470

  0
LWPOLYLINE
  5
A1
330
70
100
AcDbEntity
  8
keylayout
 62
     8
420
  7500145
370
     9
100
AcDbPolyline
 90
        4
 70
     1
 43
0.0
 10
247.4999814392006
 20
-247.499984939332
 10
228.4999875474657
 20
-247.499984939332
 10
228.4999875474657
 20
-228.4999910333635
 10
247.4999814392006
 20
-228.4999910333635
  0
HATCH
  5
A2
330
70
100
AcDbEntity
  8
keylayout
 62
   254
420
 14474717
440
 33554687
100
AcDbHatch
 10
0.0
 20
0.0
 30
0.0
210
0.0
220
0.0
230
1.0
  2
SOLID
 70
     1
 71
     1
 91
        1
 92
        1
 93
        4
 72
     1
 10
247.4999814392006
 20
-247.499984939332
 11
228.4999875474657
 21
-247.499984939332
 72
     1
 10
228.4999875474657
 20
-247.499984939332
 11
228.4999875474657
 21
-228.4999910333635
 72
     1
 10
228.4999875474657
 20
-228.4999910333635
 11
247.4999814392006
 21
-228.4999910333635
 72
     1
 10
247.4999814392006
 20
-228.4999910333635
 11
247.4999814392006
 21
-247.499984939332
 97
        1
330
A1
 75
     2
 76
     1
 98
        1
 10
0.0
 20
0.0
450
        0
451
        0
460
0.0
461
0.0
452
        0
462
0.0
453
        0
470

  0
LWPOLYLINE
  5
A3
330
70
100
AcDbEntity
  8
keylayout
 62
     8
420
  7500145
370
     9
100
AcDbPolyline
 90
        4
 70
     1
 43
0.0
 10
228.4999875474657
 20
-247.499984939332
 10
209.4999936557308
 20
-247.499984939332
 10
209.4999936557308
 20
-228.4999910333635
 10
228.4999875474657
 20
-228.4999910333635
  0
HATCH
  5
A4
330
70
100
AcDbEntity
  8
keylayout
 62
   254
420
 14474717
440
 33554687
100
AcDbHatch
 10
0.0
 20
0.0
 30
0.0
210
0.0
220
0.0
230
1.0
  2
SOLID
 70
     1
 71
     1
 91
        1
 92
        1
 93
        4
 72
     1
 10
228.4999875474657
 20
-247.499984939332
 11
209.4999936557308
 21
-247.499984939332
 72
     1
 10
209.4999936557308
 20
-247.499984939332
 11
209.4999936557308
 21
-228.4999910333635
 72
     1
 10
209.4999936557308
 20
-228.4999910333635
 11
228.4999875474657
 21
-228.4999910333635
 72
     1
 10
228.4999875474657
 20
-228.4999910333635
 11
228.4999875474657
 21
-247.499984939332
 97
        1
330
A3
 75
     2
 76
     1
 98
        1
 10
0.0
 20
0.0
450
        0
451
        0
460
0.0
461
0.0
452
        0
462
0.0
453
        0
470

  0
LWPOLYLINE
  5
A5
330
70
100
AcDbEntity
  8
keylayout
 62
     8
420
  7500145
370
     9
100
AcDbPolyline
 90
        4
 70
     1
 43
0.0
 10
209.4999936557308
 20
-190.4999971321446
 10
190.499999763994
 20
-190.4999971321446
 10
190.499999763994
 20
-171.5000032261749
 10
209.4999936557308
 20
-171.5000032261749
  0
HATCH
  5
A6
330
70
100
AcDbEntity
  8
keylayout
 62
   254
420
 14474717
440
 33554687
100
AcDbHatch
 10
0.0
 20
0.0
 30
0.0
210
0.0
220
0.0
230
1.0
  2
SOLID
 70
     1
 71
     1
 91
        1
 92
        1
 93
        4
 72
     1
 10
209.4999936557308
 20
-190.4999971321446
 11
190.499999763994
 21
-190.4999971321446
 72
     1
 10
190.499999763994
 20
-190.4999971321446
 11
190.499999763994
 21
-171.5000032261749
 72
     1
 10
190.499999763994
 20
-171.5000032261749
 11
209.4999936557308
 21
-171.5000032261749
 72
     1
 10
209.4999936557308
 20
-171.5000032261749
 11
209.4999936557308
 21
-190.4999971321446
 97
        1
330
A5
 75
     2
 76
     1
 98
        1
 10
0.0
 20
0.0
450
        0
451
        0
460
0.0
461
0.0
452
        0
462
0.0
453
        0
470

  0
LWPOLYLINE
  5
A7
330
70
100
AcDbEntity
  8
keylayout
 62
     8
420
  7500145
370
     9
100
AcDbPolyline
 90
        4
 70
     1
 43
0.0
 10
209.4999936557308
 20
-209.499991038114
 10
190.499999763994
 20
-209.499991038114
 10
190.499999763994
 20
-190.4999971321446
 10
209.4999936557308
 20
-190.4999971321446
  0
HATCH
  5
A8
330
70
100
AcDbEntity
  8
keylayout
 62
   254
420
 14474717
440
 33554687
100
AcDbHatch
 10
0.0
 20
0.0
 30
0.0
210
0.0
220
0.0
230
1.0
  2
SOLID
 70
     1
 71
     1
 91
        1
 92
        1
 93
        4
 72
     1
 10
209.4999936557308
 20
-209.499991038114
 11
190.499999763994
 21
-209.499991038114
 72
     1
 10
190.499999763994
 20
-209.499991038114
 11
190.499999763994
 21
-190.4999971321446
 72
     1
 10
190.499999763994
 20
-190.4999971321446
 11
209.4999936557308
 21
-190.4999971321446
 72
     1
 10
209.4999936557308
 20
-190.4999971321446
 11
209.4999936557308
 21
-209.499991038114
 97
        1
330
A7
 75
     2
 76
     1
 98
        1
 10
0.0
 20
0.0
450
        0
451
        0
460
0.0
461
0.0
452
        0
462
0.0
453
        0
470

  0
LWPOLYLINE
  5
A9
330
70
100
AcDbEntity
  8
keylayout
 62
     8
420
  7500145
370
     9
100
AcDbPolyline
 90
        4
 70
     1
 43
0.0
 10
209.4999936557308
 20
-171.5000032261749
 10
190.499999763994
 20
-171.5000032261749
 10
190.499999763994
 20
-152.5000093202071
 10
209.4999936557308
 20
-152.5000093202071
  0
HATCH
  5
AA
330
70
100
AcDbEntity
  8
keylayout
 62
   254
420
 14474717
440
 33554687
100
AcDbHatch
 10
0.0
 20
0.0
 30
0.0
210
0.0
220
0.0
230
1.0
  2
SOLID
 70
     1
 71
     1
 91
        1
 92
        1
 93
        4
 72
     1
 10
209.4999936557308
 20
-171.5000032261749
 11
190.499999763994
 21
-171.5000032261749
 72
     1
 10
190.499999763994
 20
-171.5000032261749
 11
190.499999763994
 21
-152.5000093202071
 72
     1
 10
190.499999763994
 20
-152.5000093202071
 11
209.4999936557308
 21
-152.5000093202071
 72
     1
 10
209.4999936557308
 20
-152.5000093202071
 11
209.4999936557308
 21
-171.5000032261749
 97
        1
330
A9
 75
     2
 76
     1
 98
        1
 10
0.0
 20
0.0
450
        0
451
        0
460
0.0
461
0.0
452
        0
462
0.0
453
        0
470

  0
LWPOLYLINE
  5
AB
330
70
100
AcDbEntity
  8
keylayout
 62
     8
420
  7500145
370
     9
100
AcDbPolyline
 90
        4
 70
     1
 43
0.0
 10
247.4999814392006
 20
-199.9999971297707
 10
228.4999875474657
 20
-199.9999971297707
 10
228.4999875474657
 20
-181.0000032238
 10
247.4999814392006
 20
-181.0000032238
  0
HATCH
  5
AC
330
70
100
AcDbEntity
  8
keylayout
 62
   254
420
 14474717
440
 33554687
100
AcDbHatch
 10
0.0
 20
0.0
 30
0.0
210
0.0
220
0.0
230
1.0
  2
SOLID
 70
     1
 71
     1
 91
        1
 92
        1
 93
        4
 72
     1
 10
247.4999814392006
 20
-199.9999971297707
 11
228.4999875474657
 21
-199.9999971297707
 72
     1
 10
228.4999875474657
 20
-199.9999971297707
 11
228.4999875474657
 21
-181.0000032238
 72
     1
 10
228.4999875474657
 20
-181.0000032238
 11
247.4999814392006
 21
-181.0000032238
 72
     1
 10
247.4999814392006
 20
-181.0000032238
 11
247.4999814392006
 21
-199.9999971297707
 97
        1
330
AB
 75
     2
 76
     1
 98
        1
 10
0.0
 20
0.0
450
        0
451
        0
460
0.0
461
0.0
452
        0
462
0.0
453
        0
470

  0
LWPOLYLINE
  5
AD
330
70
100
AcDbEntity
  8
keylayout
 62
     8
420
  7500145
370
     9
100
AcDbPolyline
 90
        4
 70
     1
 43
0.0
 10
247.4999814392006
 20
-218.9999910357391
 10
228.4999875474657
 20
-218.9999910357391
 10
228.4999875474657
 20
-199.9999971297707
 10
247.4999814392006
 20
-199.9999971297707
  0
HATCH
  5
AE
330
70
100
AcDbEntity
  8
keylayout
 62
   254
420
 14474717
440
 33554687
100
AcDbHatch
 10
0.0
 20
0.0
 30
0.0
210
0.0
220
0.0
230
1.0
  2
SOLID
 70
     1
 71
     1
 91
        1
 92
        1
 93
        4
 72
     1
 10
247.4999814392006
 20
-218.9999910357391
 11
228.4999875474657
 21
-218.9999910357391
 72
     1
 10
228.4999875474657
 20
-218.9999910357391
 11
228.4999875474657
 21
-199.9999971297707
 72
     1
 10
228.4999875474657
 20
-199.9999971297707
 11
247.4999814392006
 21
-199.9999971297707
 72
     1
 10
247.4999814392006
 20
-199.9999971297707
 11
247.4999814392006
 21
-218.9999910357391
 97
        1
330
AD
 75
     2
 76
     1
 98
        1
 10
0.0
 20
0.0
450
        0
451
        0
460
0.0
461
0.0
452
        0
462
0.0
453
        0
470

  0
LWPOLYLINE
  5
AF
330
70
100
AcDbEntity
  8
keylayout
 62
     8
420
  7500145
370
     9
100
AcDbPolyline
 90
        4
 70
     1
 43
0.0
 10
247.4999814392006
 20
-181.0000032238
 10
228.4999875474657
 20
-181.0000032238
 10
228.4999875474657
 20
-162.0000093178322
 10
247.4999814392006
 20
-162.0000093178322
  0
HATCH
  5
B0
330
70
100
AcDbEntity
  8
keylayout
 62
   254
420
 14474717
440
 33554687
100
AcDbHatch
 10
0.0
 20
0.0
 30
0.0
210
0.0
220
0.0
230
1.0
  2
SOLID
 70
     1
 71
     1
 91
        1
 92
        1
 93
        4
 72
     1
 10
247.4999814392006
 20
-181.0000032238
 11
228.4999875474657
 21
-181.0000032238
 72
     1
 10
228.4999875474657
 20
-181.0000032238
 11
228.4999875474657
 21
-162.0000093178322
 72
     1
 10
228.4999875474657
 20
-162.0000093178322
 11
247.4999814392006
 21
-162.0000093178322
 72
     1
 10
247.4999814392006
 20
-162.0000093178322
 11
247.4999814392006
 21
-181.0000032238
 97
        1
330
AF
 75
     2
 76
     1
 98
        1
 10
0.0
 20
0.0
450
        0
451
        0
460
0.0
461
0.0
452
        0
462
0.0
453
        0
470

  0
LWPOLYLINE
  5
B3
330
70
100
AcDbEntity
  8
bottomplate
 62
   250
420
  2299925
370
    35
100
AcDbPolyline
 90
       10
 70
     1
 43
0.0
 10
147.500015391456
 20
-152.5000093202071
 10
171.5000058722578
 20
-152.5000093202071
 10
171.5000058722578
 20
-147.500009321457
 10
252.4999875603018
 20
-147.4689999831841
 10
252.4999875603018
 20
-252.4999875603018
 10
204.5000030006327
 20
-252.4999875603018
 10
204.5000030006327
 20
-228.4999849440824
 10
176.5000076700407
 20
-228.4999849440824
 10
176.5000076700407
 20
-252.4999875603018
 10
147.500015391456
 20
-252.4999875603018
  0
CIRCLE
  5
B4
330
70
100
AcDbEntity
  8
bottomplate
 62
   250
420
  2299925
370
    35
100
AcDbCircle
 10
150.375002751407
 20
-196.4999971306445
 30
0.0
 40
1.049999999737461
  0
CIRCLE
  5
B5
330
70
100
AcDbEntity
  8
bottomplate
 62
   250
420
  2299925
370
    35
100
AcDbCircle
 10
150.375002751407
 20
-249.4999875610519
 30
0.0
 40
1.049999999737301
  0
CIRCLE
  5
B6
330
70
100
AcDbEntity
  8
bottomplate
 62
   250
420
  2299925
370
    35
100
AcDbCircle
 10
249.4999814387008
 20
-220.7499910353014
 30
0.0
 40
1.049999999737421
  0
CIRCLE
  5
B7
330
70
100
AcDbEntity
  8
bottomplate
 62
   250
420
  2299925
370
    35
100
AcDbCircle
 10
249.4999814387008
 20
-249.4999849388321
 30
0.0
 40
1.049999999737421
  0
CIRCLE
  5
B8
330
70
100
AcDbEntity
  8
bottomplate
 62
   250
420
  2299925
370
    35
100
AcDbCircle
 10
249.499987561052
 20
-150.4689999824341
 30
0.0
 40
1.04999999973718
  0
CIRCLE
  5
B9
330
70
100
AcDbEntity
  8
bottomplate
 62
   250
420
  2299925
370
    35
100
AcDbCircle
 10
174.5000058715073
 20
-150.500009320705
 30
0.0
 40
1.04999999973718
  0
CIRCLE
  5
BA
330
70
100
AcDbEntity
  8
bottomplate
 62
   250
420
  2299925
370
    35
100
AcDbCircle
 10
200.000375222022
 20
-220.7499910353014
 30
0.0
 40
1.04999999973706
  0
CIRCLE
  5
BB
330
70
100
AcDbEntity
  8
bottomplate
 62
   250
420
  2299925
370
    35
100
AcDbCircle
 10
207.4999936562308
 20
-249.4999849388321
 30
0.0
 40
1.04999999973718
  0
CIRCLE
  5
BD
330
70
100
AcDbEntity
  8
middleplate3
 62
   250
420
  2299925
370
    35
100
AcDbCircle
 10
150.3750027514085
 20
-196.4999971306433
 30
0.0
 40
1.049999999737541
  0
CIRCLE
  5
BE
330
70
100
AcDbEntity
  8
middleplate3
 62
   250
420
  2299925
370
    35
100
AcDbCircle
 10
150.3750027514085
 20
-249.4999875610519
 30
0.0
 40
1.049999999737381
  0
CIRCLE
  5
BF
330
70
100
AcDbEntity
  8
middleplate3
 62
   250
420
  2299925
370
    35
100
AcDbCircle
 10
200.0003752220206
 20
-220.7499910353001
 30
0.0
 40
1.049999999737301
  0
CIRCLE
  5
C0
330
70
100
AcDbEntity
  8
middleplate3
 62
   250
420
  2299925
370
    35
100
AcDbCircle
 10
249.4999814387008
 20
-220.7499910353014
 30
0.0
 40
1.049999999737421
  0
CIRCLE
  5
C1
330
70
100
AcDbEntity
  8
middleplate3
 62
   250
420
  2299925
370
    35
100
AcDbCircle
 10
249.4999875610527
 20
-150.4689999824322
 30
0.0
 40
1.04999999973718
  0
CIRCLE
  5
C2
330
70
100
AcDbEntity
  8
middleplate3
 62
   250
420
  2299925
370
    35
100
AcDbCircle
 10
174.5000058715066
 20
-150.5000093207032
 30
0.0
 40
1.049999999737301
  0
CIRCLE
  5
C3
330
70
100
AcDbEntity
  8
middleplate3
 62
   250
420
  2299925
370
    35
100
AcDbCircle
 10
207.4999936562289
 20
-249.4999849388315
 30
0.0
 40
1.04999999973718
  0
CIRCLE
  5
C4
330
70
100
AcDbEntity
  8
middleplate3
 62
   250
420
  2299925
370
    35
100
AcDbCircle
 10
249.4999814386998
 20
-249.4999849388315
 30
0.0
 40
1.04999999973694
  0
LWPOLYLINE
  5
C5
330
70
100
AcDbEntity
  8
middleplate3
 62
   250
420
  2299925
370
    35
100
AcDbPolyline
 90
       10
 70
     1
 43
0.0
 10
171.5000011062403
 20
-147.515515499708
 10
252.4999827942843
 20
-147.4845061614352
 10
252.4999827942843
 20
-252.5154937385528
 10
204.4999982346152
 20
-252.5154937385528
 10
204.4999982346152
 20
-228.5154911223334
 10
176.5000029040232
 20
-228.5154911223334
 10
176.5000029040232
 20
-252.5154937385528
 10
147.5000106254385
 20
-252.5154937385528
 10
147.5000106254385
 20
-152.5155154984581
 10
171.5000058722578
 20
-152.5155154984581
  0
LWPOLYLINE
  5
C6
330
70
100
AcDbEntity
  8
middleplate3
 62
   250
420
  2299925
370
    35
100
AcDbPolyline
 90
       18
 70
     1
 43
0.0
 10
152.500015555982
 20
-247.499984939332
 10
171.5000058722578
 20
-247.499984939332
 10
171.4684589831106
 20
-214.2499910369269
 10
190.4698569034419
 20
-214.2499910369269
 10
190.499999763994
 20
-209.499991038114
 10
209.4999936557308
 20
-209.499991038114
 10
209.4999936557308
 20
-214.2499910369269
 10
228.4999875474657
 20
-214.2525557689858
 10
228.4999875474657
 20
-219.0145555836498
 10
247.4999814392006
 20
-218.9999910357391
 10
247.4999814392006
 20
-162.0000093178322
 10
228.4999875474657
 20
-162.0000093178322
 10
228.4999875474657
 20
-157.2500083678831
 10
209.4999936557308
 20
-157.2500115247286
 10
209.4999936557308
 20
-152.5000093202071
 10
190.499999763994
 20
-152.5000093202071
 10
190.499999763994
 20
-157.25000931902
 10
152.5000121597559
 20
-157.25000931902
  0
LWPOLYLINE
  5
C7
330
70
100
AcDbEntity
  8
middleplate3
 62
   250
420
  2299925
370
    35
100
AcDbPolyline
 90
        4
 70
     1
 43
0.0
 10
209.4999936557308
 20
-228.4999910333635
 10
209.4999936557308
 20
-247.499984939332
 10
247.4999814392006
 20
-247.499984939332
 10
247.4999814392006
 20
-228.4999910333635
  0
CIRCLE
  5
C9
330
70
100
AcDbEntity
  8
middleplate2
 62
   250
420
  2299925
370
    35
100
AcDbCircle
 10
150.3750027514085
 20
-196.4999971306433
 30
0.0
 40
1.049999999737541
  0
CIRCLE
  5
CA
330
70
100
AcDbEntity
  8
middleplate2
 62
   250
420
  2299925
370
    35
100
AcDbCircle
 10
150.3750027514085
 20
-249.4999875610519
 30
0.0
 40
1.049999999737381
  0
CIRCLE
  5
CB
330
70
100
AcDbEntity
  8
middleplate2
 62
   250
420
  2299925
370
    35
100
AcDbCircle
 10
200.0003752220206
 20
-220.7499910353001
 30
0.0
 40
1.049999999737301
  0
CIRCLE
  5
CC
330
70
100
AcDbEntity
  8
middleplate2
 62
   250
420
  2299925
370
    35
100
AcDbCircle
 10
249.4999814387008
 20
-220.7499910353014
 30
0.0
 40
1.049999999737421
  0
CIRCLE
  5
CD
330
70
100
AcDbEntity
  8
middleplate2
 62
   250
420
  2299925
370
    35
100
AcDbCircle
 10
249.4999875610527
 20
-150.4689999824322
 30
0.0
 40
1.04999999973718
  0
CIRCLE
  5
CE
330
70
100
AcDbEntity
  8
middleplate2
 62
   250
420
  2299925
370
    35
100
AcDbCircle
 10
174.5000058715066
 20
-150.5000093207032
 30
0.0
 40
1.049999999737301
  0
CIRCLE
  5
CF
330
70
100
AcDbEntity
  8
middleplate2
 62
   250
420
  2299925
370
    35
100
AcDbCircle
 10
207.4999936562289
 20
-249.4999849388315
 30
0.0
 40
1.04999999973718
  0
CIRCLE
  5
D0
330
70
100
AcDbEntity
  8
middleplate2
 62
   250
420
  2299925
370
    35
100
AcDbCircle
 10
249.4999814386998
 20
-249.4999849388315
 30
0.0
 40
1.04999999973694
  0
LWPOLYLINE
  5
D1
330
70
100
AcDbEntity
  8
middleplate2
 62
   250
420
  2299925
370
    35
100
AcDbPolyline
 90
       26
 70
     1
 43
0.0
 10
152.5000119805229
 20
-152.5155154984581
 10
152.500015555982
 20
-247.499984939332
 10
171.5000058722578
 20
-247.499984939332
 10
171.4684589831106
 20
-214.2499910369269
 10
190.4698569034419
 20
-214.2499910369269
 10
190.499999763994
 20
-209.499991038114
 10
209.4999936557308
 20
-209.499991038114
 10
209.4999936557308
 20
-214.2499910369269
 10
228.4999875474657
 20
-214.2525557689858
 10
228.4999875474657
 20
-219.0145555836498
 10
247.4999814392006
 20
-218.9999910357391
 10
247.4999814392006
 20
-153.9999999614999
 10
209.4999936557308
 20
-154.0000062751909
 10
209.4999936557308
 20
-152.5000093202071
 10
190.499999763994
 20
-152.5000093202071
 10
190.499999763994
 20
-153.9999999614999
 10
171.5000058722578
 20
-153.9999999614999
 10
171.5000011062403
 20
-147.515515499708
 10
252.4999827942843
 20
-147.4845061614352
 10
252.4999827942843
 20
-252.5154937385528
 10
204.4999982346152
 20
-252.5154937385528
 10
204.4999982346152
 20
-228.5154911223334
 10
176.5000029040232
 20
-228.5154911223334
 10
176.5000029040232
 20
-252.5154937385528
 10
147.5000106254385
 20
-252.5154937385528
 10
147.5000106254385
 20
-152.5155154984581
  0
LWPOLYLINE
  5
D2
330
70
100
AcDbEntity
  8
middleplate2
 62
   250
420
  2299925
370
    35
100
AcDbPolyline
 90
        4
 70
     1
 43
0.0
 10
209.4999936557308
 20
-228.4999910333635
 10
209.4999936557308
 20
-247.499984939332
 10
247.4999814392006
 20
-247.499984939332
 10
247.4999814392006
 20
-228.4999910333635
  0
LWPOLYLINE
  5
D4
330
70
100
AcDbEntity
  8
mainkeys
 62
   104
420
  2272312
370
    35
100
AcDbPolyline
 90
       13
 70
     1
 43
0.0
 10
153.5000153899562
 20
-155.000006274941
 10
153.5000153899562
 20
-209.4999814675361
 10
153.5000153899562
 20
-246.4999875618019
 10
170.4999969056174
 20
-246.4999875618019
 10
170.4999969056174
 20
-213.2499929954616
 10
189.4999999526249
 20
-213.2499929954616
 10
189.4999999526249
 20
-208.4999814677863
 10
210.5000029991326
 20
-208.4999814677863
 10
210.5000029991326
 20
-213.2499929954616
 10
229.4999845142936
 20
-213.2499929954616
 10
229.4999845142936
 20
-217.9999829912902
 10
246.4999875618019
 20
-217.9999829912902
 10
246.4999875618019
 20
-154.99999996125
  0
CIRCLE
  5
D5
330
70
100
AcDbEntity
  8
mainkeys
 62
   250
420
  2299925
370
    35
100
AcDbCircle
 10
150.3750027514085
 20
-196.4999971306433
 30
0.0
 40
1.049999999737541
  0
CIRCLE
  5
D6
330
70
100
AcDbEntity
  8
mainkeys
 62
   250
420
  2299925
370
    35
100
AcDbCircle
 10
150.3750027514085
 20
-249.4999875610519
 30
0.0
 40
1.049999999737381
  0
CIRCLE
  5
D7
330
70
100
AcDbEntity
  8
mainkeys
 62
   250
420
  2299925
370
    35
100
AcDbCircle
 10
200.0003752220206
 20
-220.7499910353001
 30
0.0
 40
1.049999999737301
  0
CIRCLE
  5
D8
330
70
100
AcDbEntity
  8
mainkeys
 62
   250
420
  2299925
370
    35
100
AcDbCircle
 10
249.4999814387008
 20
-220.7499910353014
 30
0.0
 40
1.049999999737421
  0
CIRCLE
  5
D9
330
70
100
AcDbEntity
  8
mainkeys
 62
   250
420
  2299925
370
    35
100
AcDbCircle
 10
249.4999875610527
 20
-150.4689999824322
 30
0.0
 40
1.04999999973718
  0
CIRCLE
  5
DA
330
70
100
AcDbEntity
  8
mainkeys
 62
   250
420
  2299925
370
    35
100
AcDbCircle
 10
174.5000058715066
 20
-150.5000093207032
 30
0.0
 40
1.049999999737301
  0
CIRCLE
  5
DB
330
70
100
AcDbEntity
  8
mainkeys
 62
   250
420
  2299925
370
    35
100
AcDbCircle
 10
207.4999936562289
 20
-249.4999849388315
 30
0.0
 40
1.04999999973718
  0
CIRCLE
  5
DC
330
70
100
AcDbEntity
  8
mainkeys
 62
   250
420
  2299925
370
    35
100
AcDbCircle
 10
249.4999814386998
 20
-249.4999849388315
 30
0.0
 40
1.04999999973694
  0
LWPOLYLINE
  5
DD
330
70
100
AcDbEntity
  8
mainkeys
 62
   250
420
  2299925
370
    35
100
AcDbPolyline
 90
       20
 70
     1
 43
0.0
 10
252.4999827942843
 20
-252.5154937385528
 10
204.4999982346152
 20
-252.5154937385528
 10
204.4999982346152
 20
-228.5154911223334
 10
176.5000029040232
 20
-228.5154911223334
 10
176.5000029040232
 20
-252.5154937385528
 10
147.5000106254385
 20
-252.5154937385528
 10
147.5000106254385
 20
-152.5155154984581
 10
152.5000119805229
 20
-152.5155154984581
 10
152.500015555982
 20
-247.499984939332
 10
171.5000058722578
 20
-247.499984939332
 10
171.4684589831106
 20
-214.2499910369269
 10
190.4698569034419
 20
-214.2499910369269
 10
190.499999763994
 20
-209.499991038114
 10
209.4999936557308
 20
-209.499991038114
 10
209.4999936557308
 20
-214.2499910369269
 10
228.4999875474657
 20
-214.2525557689858
 10
228.4999875474657
 20
-219.0145555836498
 10
247.4999814392006
 20
-218.9999910357391
 10
247.4999814392006
 20
-162.0000093178322
 10
252.4999827942843
 20
-162.000006273191
  0
LWPOLYLINE
  5
DE
330
70
100
AcDbEntity
  8
mainkeys
 62
   250
420
  2299925
370
    35
100
AcDbPolyline
 90
       10
 70
     1
 43
0.0
 10
209.4999936557308
 20
-157.25000931902
 10
209.4999936557308
 20
-152.5000093202071
 10
190.499999763994
 20
-152.5000093202071
 10
190.499999763994
 20
-157.25000931902
 10
171.5000058722578
 20
-157.25000931902
 10
171.5000011062403
 20
-147.515515499708
 10
252.4999827942843
 20
-147.4845061614352
 10
252.4999827942843
 20
-154.2500089532473
 10
228.4999855930827
 20
-154.250009157818
 10
228.4999999428747
 20
-157.3360741332434
  0
LWPOLYLINE
  5
DF
330
70
100
AcDbEntity
  8
mainkeys
 62
   250
420
  2299925
370
     9
100
AcDbPolyline
 90
       20
 70
     1
 43
0.0
 10
155.0000055074959
 20
-230.9999761093232
 10
155.0000055074959
 20
-231.9999760527799
 10
154.200010130367
 20
-231.9999760527799
 10
154.200010130367
 20
-235.0999753052914
 10
155.0000055074959
 20
-235.0999753052914
 10
155.0000055074959
 20
-240.899976121749
 10
154.200010130367
 20
-240.899976121749
 10
154.200010130367
 20
-243.9999763279345
 10
155.0000055074959
 20
-243.9999763279345
 10
155.0000055074959
 20
-244.9999762713912
 10
169.000004715891
 20
-244.9999762713912
 10
169.000004715891
 20
-243.9999763279345
 10
169.8000077224137
 20
-243.9999763279345
 10
169.8000077224137
 20
-240.899976121749
 10
169.000004715891
 20
-240.899976121749
 10
169.000004715891
 20
-235.0999753052914
 10
169.8000077224137
 20
-235.0999753052914
 10
169.8000077224137
 20
-231.9999760527799
 10
169.000004715891
 20
-231.9999760527799
 10
169.000004715891
 20
-230.9999761093232
  0
LWPOLYLINE
  5
E0
330
70
100
AcDbEntity
  8
mainkeys
 62
   250
420
  2299925
370
     9
100
AcDbPolyline
 90
       20
 70
     1
 43
0.0
 10
155.0000055074959
 20
-211.9999879100639
 10
155.0000055074959
 20
-212.9999878535206
 10
154.200010130367
 20
-212.9999878535206
 10
154.200010130367
 20
-216.0999871060321
 10
155.0000055074959
 20
-216.0999871060321
 10
155.0000055074959
 20
-221.8999879224898
 10
154.200010130367
 20
-221.8999879224898
 10
154.200010130367
 20
-224.9999881286752
 10
155.0000055074959
 20
-224.9999881286752
 10
155.0000055074959
 20
-225.9999880721319
 10
169.000004715891
 20
-225.9999880721319
 10
169.000004715891
 20
-224.9999881286752
 10
169.8000077224137
 20
-224.9999881286752
 10
169.8000077224137
 20
-221.8999879224898
 10
169.000004715891
 20
-221.8999879224898
 10
169.000004715891
 20
-216.0999871060321
 10
169.8000077224137
 20
-216.0999871060321
 10
169.8000077224137
 20
-212.9999878535206
 10
169.000004715891
 20
-212.9999878535206
 10
169.000004715891
 20
-211.9999879100639
  0
LWPOLYLINE
  5
E1
330
70
100
AcDbEntity
  8
mainkeys
 62
   250
420
  2299925
370
     9
100
AcDbPolyline
 90
       20
 70
     1
 43
0.0
 10
155.0000055074959
 20
-192.9999998689596
 10
155.0000055074959
 20
-193.9999998124164
 10
154.200010130367
 20
-193.9999998124164
 10
154.200010130367
 20
-197.0999990649279
 10
155.0000055074959
 20
-197.0999990649279
 10
155.0000055074959
 20
-202.8999998813855
 10
154.200010130367
 20
-202.8999998813855
 10
154.200010130367
 20
-206.000000087571
 10
155.0000055074959
 20
-206.000000087571
 10
155.0000055074959
 20
-207.0000000310276
 10
169.000004715891
 20
-207.0000000310276
 10
169.000004715891
 20
-206.000000087571
 10
169.8000077224137
 20
-206.000000087571
 10
169.8000077224137
 20
-202.8999998813855
 10
169.000004715891
 20
-202.8999998813855
 10
169.000004715891
 20
-197.0999990649279
 10
169.8000077224137
 20
-197.0999990649279
 10
169.8000077224137
 20
-193.9999998124164
 10
169.000004715891
 20
-193.9999998124164
 10
169.000004715891
 20
-192.9999998689596
  0
LWPOLYLINE
  5
E2
330
70
100
AcDbEntity
  8
mainkeys
 62
   250
420
  2299925
370
     9
100
AcDbPolyline
 90
       20
 70
     1
 43
0.0
 10
173.9999993992314
 20
-197.7499882171204
 10
173.9999993992314
 20
-198.7499881605771
 10
173.2000040221025
 20
-198.7499881605771
 10
173.2000040221025
 20
-201.849987413089
 10
173.9999993992314
 20
-201.849987413089
 10
173.9999993992314
 20
-207.6499882295466
 10
173.2000040221025
 20
-207.6499882295466
 10
173.2000040221025
 20
-210.749988435732
 10
173.9999993992314
 20
-210.749988435732
 10
173.9999993992314
 20
-211.7499883791887
 10
187.9999986076265
 20
-211.7499883791887
 10
187.9999986076265
 20
-210.749988435732
 10
188.8000016141493
 20
-210.749988435732
 10
188.8000016141493
 20
-207.6499882295466
 10
187.9999986076265
 20
-207.6499882295466
 10
187.9999986076265
 20
-201.849987413089
 10
188.8000016141493
 20
-201.849987413089
 10
188.8000016141493
 20
-198.7499881605771
 10
187.9999986076265
 20
-198.7499881605771
 10
187.9999986076265
 20
-197.7499882171204
  0
LWPOLYLINE
  5
E3
330
70
100
AcDbEntity
  8
mainkeys
 62
   250
420
  2299925
370
     9
100
AcDbPolyline
 90
       20
 70
     1
 43
0.0
 10
173.9999993992314
 20
-178.7500000178607
 10
173.9999993992314
 20
-179.7499999613175
 10
173.2000040221025
 20
-179.7499999613175
 10
173.2000040221025
 20
-182.849999213829
 10
173.9999993992314
 20
-182.849999213829
 10
173.9999993992314
 20
-188.6500000302866
 10
173.2000040221025
 20
-188.6500000302866
 10
173.2000040221025
 20
-191.7500002364723
 10
173.9999993992314
 20
-191.7500002364723
 10
173.9999993992314
 20
-192.7500001799288
 10
187.9999986076265
 20
-192.7500001799288
 10
187.9999986076265
 20
-191.7500002364723
 10
188.8000016141493
 20
-191.7500002364723
 10
188.8000016141493
 20
-188.6500000302866
 10
187.9999986076265
 20
-188.6500000302866
 10
187.9999986076265
 20
-182.849999213829
 10
188.8000016141493
 20
-182.849999213829
 10
188.8000016141493
 20
-179.7499999613175
 10
187.9999986076265
 20
-179.7499999613175
 10
187.9999986076265
 20
-178.7500000178607
  0
LWPOLYLINE
  5
E4
330
70
100
AcDbEntity
  8
mainkeys
 62
   250
420
  2299925
370
     9
100
AcDbPolyline
 90
       20
 70
     1
 43
0.0
 10
173.9999993992314
 20
-159.7500119767565
 10
173.9999993992314
 20
-160.7500119202133
 10
173.2000040221025
 20
-160.7500119202133
 10
173.2000040221025
 20
-163.8500111727248
 10
173.9999993992314
 20
-163.8500111727248
 10
173.9999993992314
 20
-169.6500119891824
 10
173.2000040221025
 20
-169.6500119891824
 10
173.2000040221025
 20
-172.7500121953678
 10
173.9999993992314
 20
-172.7500121953678
 10
173.9999993992314
 20
-173.7500121388249
 10
187.9999986076265
 20
-173.7500121388249
 10
187.9999986076265
 20
-172.7500121953678
 10
188.8000016141493
 20
-172.7500121953678
 10
188.8000016141493
 20
-169.6500119891824
 10
187.9999986076265
 20
-169.6500119891824
 10
187.9999986076265
 20
-163.8500111727248
 10
188.8000016141493
 20
-163.8500111727248
 10
188.8000016141493
 20
-160.7500119202133
 10
187.9999986076265
 20
-160.7500119202133
 10
187.9999986076265
 20
-159.7500119767565
  0
LWPOLYLINE
  5
E5
330
70
100
AcDbEntity
  8
mainkeys
 62
   250
420
  2299925
370
     9
100
AcDbPolyline
 90
       20
 70
     1
 43
0.0
 10
211.9999871827044
 20
-197.7499882171204
 10
211.9999871827044
 20
-198.7499881605771
 10
211.1999918055749
 20
-198.7499881605771
 10
211.1999918055749
 20
-201.849987413089
 10
211.9999871827044
 20
-201.849987413089
 10
211.9999871827044
 20
-207.6499882295466
 10
211.1999918055749
 20
-207.6499882295466
 10
211.1999918055749
 20
-210.749988435732
 10
211.9999871827044
 20
-210.749988435732
 10
211.9999871827044
 20
-211.7499883791887
 10
225.9999863910993
 20
-211.7499883791887
 10
225.9999863910993
 20
-210.749988435732
 10
226.7999893976216
 20
-210.749988435732
 10
226.7999893976216
 20
-207.6499882295466
 10
225.9999863910993
 20
-207.6499882295466
 10
225.9999863910993
 20
-201.849987413089
 10
226.7999893976216
 20
-201.849987413089
 10
226.7999893976216
 20
-198.7499881605771
 10
225.9999863910993
 20
-198.7499881605771
 10
225.9999863910993
 20
-197.7499882171204
  0
LWPOLYLINE
  5
E6
330
70
100
AcDbEntity
  8
mainkeys
 62
   250
420
  2299925
370
     9
100
AcDbPolyline
 90
       20
 70
     1
 43
0.0
 10
211.9999871827044
 20
-178.7500000178607
 10
211.9999871827044
 20
-179.7499999613175
 10
211.1999918055749
 20
-179.7499999613175
 10
211.1999918055749
 20
-182.849999213829
 10
211.9999871827044
 20
-182.849999213829
 10
211.9999871827044
 20
-188.6500000302866
 10
211.1999918055749
 20
-188.6500000302866
 10
211.1999918055749
 20
-191.7500002364723
 10
211.9999871827044
 20
-191.7500002364723
 10
211.9999871827044
 20
-192.7500001799288
 10
225.9999863910993
 20
-192.7500001799288
 10
225.9999863910993
 20
-191.7500002364723
 10
226.7999893976216
 20
-191.7500002364723
 10
226.7999893976216
 20
-188.6500000302866
 10
225.9999863910993
 20
-188.6500000302866
 10
225.9999863910993
 20
-182.849999213829
 10
226.7999893976216
 20
-182.849999213829
 10
226.7999893976216
 20
-179.7499999613175
 10
225.9999863910993
 20
-179.7499999613175
 10
225.9999863910993
 20
-178.7500000178607
  0
LWPOLYLINE
  5
E7
330
70
100
AcDbEntity
  8
mainkeys
 62
   250
420
  2299925
370
     9
100
AcDbPolyline
 90
       20
 70
     1
 43
0.0
 10
211.9999871827044
 20
-159.7500119767565
 10
211.9999871827044
 20
-160.7500119202133
 10
211.1999918055749
 20
-160.7500119202133
 10
211.1999918055749
 20
-163.8500111727248
 10
211.9999871827044
 20
-163.8500111727248
 10
211.9999871827044
 20
-169.6500119891824
 10
211.1999918055749
 20
-169.6500119891824
 10
211.1999918055749
 20
-172.7500121953678
 10
211.9999871827044
 20
-172.7500121953678
 10
211.9999871827044
 20
-173.7500121388249
 10
225.9999863910993
 20
-173.7500121388249
 10
225.9999863910993
 20
-172.7500121953678
 10
226.7999893976216
 20
-172.7500121953678
 10
226.7999893976216
 20
-169.6500119891824
 10
225.9999863910993
 20
-169.6500119891824
 10
225.9999863910993
 20
-163.8500111727248
 10
226.7999893976216
 20
-163.8500111727248
 10
226.7999893976216
 20
-160.7500119202133
 10
225.9999863910993
 20
-160.7500119202133
 10
225.9999863910993
 20
-159.7500119767565
  0
LWPOLYLINE
  5
E8
330
70
100
AcDbEntity
  8
mainkeys
 62
   250
420
  2299925
370
     9
100
AcDbPolyline
 90
       20
 70
     1
 43
0.0
 10
192.9999965310998
 20
-192.9999882183072
 10
192.9999965310998
 20
-193.9999881617642
 10
192.2000011539703
 20
-193.9999881617642
 10
192.2000011539703
 20
-197.0999874142761
 10
192.9999965310998
 20
-197.0999874142761
 10
192.9999965310998
 20
-202.8999882307338
 10
192.2000011539703
 20
-202.8999882307338
 10
192.2000011539703
 20
-205.9999884369191
 10
192.9999965310998
 20
-205.9999884369191
 10
192.9999965310998
 20
-206.9999883803759
 10
206.9999957394947
 20
-206.9999883803759
 10
206.9999957394947
 20
-205.9999884369191
 10
207.7999987460171
 20
-205.9999884369191
 10
207.7999987460171
 20
-202.8999882307338
 10
206.9999957394947
 20
-202.8999882307338
 10
206.9999957394947
 20
-197.0999874142761
 10
207.7999987460171
 20
-197.0999874142761
 10
207.7999987460171
 20
-193.9999881617642
 10
206.9999957394947
 20
-193.9999881617642
 10
206.9999957394947
 20
-192.9999882183072
  0
LWPOLYLINE
  5
E9
330
70
100
AcDbEntity
  8
mainkeys
 62
   250
420
  2299925
370
     9
100
AcDbPolyline
 90
       20
 70
     1
 43
0.0
 10
192.9999965310998
 20
-174.0000000190479
 10
192.9999965310998
 20
-174.9999999625046
 10
192.2000011539703
 20
-174.9999999625046
 10
192.2000011539703
 20
-178.0999992150162
 10
192.9999965310998
 20
-178.0999992150162
 10
192.9999965310998
 20
-183.9000000314738
 10
192.2000011539703
 20
-183.9000000314738
 10
192.2000011539703
 20
-187.0000002376592
 10
192.9999965310998
 20
-187.0000002376592
 10
192.9999965310998
 20
-188.0000001811159
 10
206.9999957394947
 20
-188.0000001811159
 10
206.9999957394947
 20
-187.0000002376592
 10
207.7999987460171
 20
-187.0000002376592
 10
207.7999987460171
 20
-183.9000000314738
 10
206.9999957394947
 20
-183.9000000314738
 10
206.9999957394947
 20
-178.0999992150162
 10
207.7999987460171
 20
-178.0999992150162
 10
207.7999987460171
 20
-174.9999999625046
 10
206.9999957394947
 20
-174.9999999625046
 10
206.9999957394947
 20
-174.0000000190479
  0
LWPOLYLINE
  5
EA
330
70
100
AcDbEntity
  8
mainkeys
 62
   250
420
  2299925
370
     9
100
AcDbPolyline
 90
       20
 70
     1
 43
0.0
 10
192.9999965310998
 20
-155.0000119779437
 10
192.9999965310998
 20
-156.0000119214004
 10
192.2000011539703
 20
-156.0000119214004
 10
192.2000011539703
 20
-159.1000111739119
 10
192.9999965310998
 20
-159.1000111739119
 10
192.9999965310998
 20
-164.9000119903696
 10
192.2000011539703
 20
-164.9000119903696
 10
192.2000011539703
 20
-168.000012196555
 10
192.9999965310998
 20
-168.000012196555
 10
192.9999965310998
 20
-169.0000121400117
 10
206.9999957394947
 20
-169.0000121400117
 10
206.9999957394947
 20
-168.000012196555
 10
207.7999987460171
 20
-168.000012196555
 10
207.7999987460171
 20
-164.9000119903696
 10
206.9999957394947
 20
-164.9000119903696
 10
206.9999957394947
 20
-159.1000111739119
 10
207.7999987460171
 20
-159.1000111739119
 10
207.7999987460171
 20
-156.0000119214004
 10
206.9999957394947
 20
-156.0000119214004
 10
206.9999957394947
 20
-155.0000119779437
  0
LWPOLYLINE
  5
EB
330
70
100
AcDbEntity
  8
mainkeys
 62
   250
420
  2299925
370
     9
100
AcDbPolyline
 90
       20
 70
     1
 43
0.0
 10
230.9999810744393
 20
-202.4999882159329
 10
230.9999810744393
 20
-203.4999881593896
 10
230.1999856973098
 20
-203.4999881593896
 10
230.1999856973098
 20
-206.5999874119018
 10
230.9999810744393
 20
-206.5999874119018
 10
230.9999810744393
 20
-212.3999882283595
 10
230.1999856973098
 20
-212.3999882283595
 10
230.1999856973098
 20
-215.4999884345448
 10
230.9999810744393
 20
-215.4999884345448
 10
230.9999810744393
 20
-216.4999883780016
 10
244.9999802828341
 20
-216.4999883780016
 10
244.9999802828341
 20
-215.4999884345448
 10
245.7999832893565
 20
-215.4999884345448
 10
245.7999832893565
 20
-212.3999882283595
 10
244.9999802828341
 20
-212.3999882283595
 10
244.9999802828341
 20
-206.5999874119018
 10
245.7999832893565
 20
-206.5999874119018
 10
245.7999832893565
 20
-203.4999881593896
 10
244.9999802828341
 20
-203.4999881593896
 10
244.9999802828341
 20
-202.4999882159329
  0
LWPOLYLINE
  5
EC
330
70
100
AcDbEntity
  8
mainkeys
 62
   250
420
  2299925
370
     9
100
AcDbPolyline
 90
       20
 70
     1
 43
0.0
 10
230.9999810744393
 20
-183.5000000166733
 10
230.9999810744393
 20
-184.49999996013
 10
230.1999856973098
 20
-184.49999996013
 10
230.1999856973098
 20
-187.5999992126416
 10
230.9999810744393
 20
-187.5999992126416
 10
230.9999810744393
 20
-193.4000000290992
 10
230.1999856973098
 20
-193.4000000290992
 10
230.1999856973098
 20
-196.5000002352843
 10
230.9999810744393
 20
-196.5000002352843
 10
230.9999810744393
 20
-197.5000001787413
 10
244.9999802828341
 20
-197.5000001787413
 10
244.9999802828341
 20
-196.5000002352843
 10
245.7999832893565
 20
-196.5000002352843
 10
245.7999832893565
 20
-193.4000000290992
 10
244.9999802828341
 20
-193.4000000290992
 10
244.9999802828341
 20
-187.5999992126416
 10
245.7999832893565
 20
-187.5999992126416
 10
245.7999832893565
 20
-184.49999996013
 10
244.9999802828341
 20
-184.49999996013
 10
244.9999802828341
 20
-183.5000000166733
  0
LWPOLYLINE
  5
ED
330
70
100
AcDbEntity
  8
mainkeys
 62
   250
420
  2299925
370
     9
100
AcDbPolyline
 90
       20
 70
     1
 43
0.0
 10
230.9999810744393
 20
-164.5000119755691
 10
230.9999810744393
 20
-165.5000119190258
 10
230.1999856973098
 20
-165.5000119190258
 10
230.1999856973098
 20
-168.6000111715373
 10
230.9999810744393
 20
-168.6000111715373
 10
230.9999810744393
 20
-174.400011987995
 10
230.1999856973098
 20
-174.400011987995
 10
230.1999856973098
 20
-177.5000121941804
 10
230.9999810744393
 20
-177.5000121941804
 10
230.9999810744393
 20
-178.5000121376368
 10
244.9999802828341
 20
-178.5000121376368
 10
244.9999802828341
 20
-177.5000121941804
 10
245.7999832893565
 20
-177.5000121941804
 10
245.7999832893565
 20
-174.400011987995
 10
244.9999802828341
 20
-174.400011987995
 10
244.9999802828341
 20
-168.6000111715373
 10
245.7999832893565
 20
-168.6000111715373
 10
245.7999832893565
 20
-165.5000119190258
 10
244.9999802828341
 20
-165.5000119190258
 10
244.9999802828341
 20
-164.5000119755691
  0
LWPOLYLINE
  5
EE
330
70
100
AcDbEntity
  8
mainkeys
 62
   250
420
  2299925
370
    35
100
AcDbPolyline
 90
       14
 70
     1
 43
0.0
 10
147.500015391456
 20
-190.5000001767855
 10
171.5000058722578
 20
-190.5000001767855
 10
171.5000058722578
 20
-147.500009321457
 10
252.4999875603018
 20
-147.4689999831841
 10
252.5000584212126
 20
-154.250007635825
 10
228.499972549935
 20
-154.1413681079519
 10
228.5000232074096
 20
-162.0000120589777
 10
252.5001394079904
 20
-162.0000062939015
 10
252.5007350525882
 20
-218.9999879910986
 10
252.4999814379508
 20
-218.9999879910986
 10
252.4999814379508
 20
-223.7499873566077
 10
176.5000076700407
 20
-223.7499723578154
 10
176.5000076700407
 20
-252.4999875603018
 10
147.500015391456
 20
-252.4999875603018
  0
LWPOLYLINE
  5
F0
330
70
100
AcDbEntity
  8
sumkeys
 62
   104
420
  2272312
370
    35
100
AcDbPolyline
 90
        4
 70
     1
 43
0.0
 10
210.4999936554806
 20
-229.4999910331133
 10
210.4999936554806
 20
-246.4999849395822
 10
246.4999814394508
 20
-246.4999849395822
 10
246.4999814394508
 20
-229.4999910331133
  0
LWPOLYLINE
  5
F1
330
70
100
AcDbEntity
  8
sumkeys
 62
   250
420
  2299925
370
     9
100
AcDbPolyline
 90
       20
 70
     1
 43
0.0
 10
230.9999810744387
 20
-230.9999879053141
 10
230.9999810744387
 20
-231.9999878487708
 10
230.1999856973098
 20
-231.9999878487708
 10
230.1999856973098
 20
-235.0999871012823
 10
230.9999810744387
 20
-235.0999871012823
 10
230.9999810744387
 20
-240.89998791774
 10
230.1999856973098
 20
-240.89998791774
 10
230.1999856973098
 20
-243.9999881239254
 10
230.9999810744387
 20
-243.9999881239254
 10
230.9999810744387
 20
-244.9999880673821
 10
244.9999802828335
 20
-244.9999880673821
 10
244.9999802828335
 20
-243.9999881239254
 10
245.7999832893565
 20
-243.9999881239254
 10
245.7999832893565
 20
-240.89998791774
 10
244.9999802828335
 20
-240.89998791774
 10
244.9999802828335
 20
-235.0999871012823
 10
245.7999832893565
 20
-235.0999871012823
 10
245.7999832893565
 20
-231.9999878487708
 10
244.9999802828335
 20
-231.9999878487708
 10
244.9999802828335
 20
-230.9999879053141
  0
LWPOLYLINE
  5
F2
330
70
100
AcDbEntity
  8
sumkeys
 62
   250
420
  2299925
370
     9
100
AcDbPolyline
 90
       20
 70
     1
 43
0.0
 10
211.9999871827038
 20
-230.9999879053141
 10
211.9999871827038
 20
-231.9999878487708
 10
211.1999918055749
 20
-231.9999878487708
 10
211.1999918055749
 20
-235.0999871012823
 10
211.9999871827038
 20
-235.0999871012823
 10
211.9999871827038
 20
-240.89998791774
 10
211.1999918055749
 20
-240.89998791774
 10
211.1999918055749
 20
-243.9999881239254
 10
211.9999871827038
 20
-243.9999881239254
 10
211.9999871827038
 20
-244.9999880673821
 10
225.9999863910986
 20
-244.9999880673821
 10
225.9999863910986
 20
-243.9999881239254
 10
226.7999893976216
 20
-243.9999881239254
 10
226.7999893976216
 20
-240.89998791774
 10
225.9999863910986
 20
-240.89998791774
 10
225.9999863910986
 20
-235.0999871012823
 10
226.7999893976216
 20
-235.0999871012823
 10
226.7999893976216
 20
-231.9999878487708
 10
225.9999863910986
 20
-231.9999878487708
 10
225.9999863910986
 20
-230.9999879053141
  0
LWPOLYLINE
  5
F3
330
70
100
AcDbEntity
  8
sumkeys
 62
   250
420
  2299925
370
    35
100
AcDbPolyline
 90
        6
 70
     1
 43
0.0
 10
204.4999936569806
 20
-252.4999849380821
 10
204.4999936569806
 20
-228.499983893931
 10
176.5000076700407
 20
-228.4999849440824
 10
176.5000076700407
 20
-223.749981106606
 10
252.4999814379508
 20
-223.749981106606
 10
252.4999814379508
 20
-252.4999849380821
  0
CIRCLE
  5
F4
330
70
100
AcDbEntity
  8
sumkeys
 62
   250
420
  2299925
370
    35
100
AcDbCircle
 10
249.4999814387009
 20
-249.4999849388321
 30
0.0
 40
1.04999999973718
  0
CIRCLE
  5
F5
330
70
100
AcDbEntity
  8
sumkeys
 62
   250
420
  2299925
370
    35
100
AcDbCircle
 10
207.4999936562308
 20
-249.4999849388321
 30
0.0
 40
1.04999999973718
  0
ENDSEC
  0
SECTION
  2
OBJECTS
  0
DICTIONARY
  5
C
330
0
100
AcDbDictionary
281
     1
  3
ACAD_COLOR
350
63
  3
ACAD_DETAILVIEWSTYLE
350
6A
  3
ACAD_GROUP
350
D
  3
ACAD_LAYOUT
350
62
  3
ACAD_MATERIAL
350
10
  3
ACAD_MLEADERSTYLE
350
66
  3
ACAD_MLINESTYLE
350
5F
  3
ACAD_PLOTSETTINGS
350
61
  3
ACAD_PLOTSTYLENAME
350
E
  3
ACAD_SCALELIST
350
42
  3
ACAD_SECTIONVIEWSTYLE
350
68
  3
ACAD_TABLESTYLE
350
64
  3
ACAD_VISUALSTYLE
350
29
  3
ACDB_RECOMPOSE_DATA
350
FE
  3
AcDbVariableDictionary
350
F6
  0
DICTIONARY
  5
63
102
{ACAD_REACTORS
330
C
102
}
330
C
100
AcDbDictionary
281
     1
  0
DICTIONARY
  5
6A
102
{ACAD_REACTORS
330
C
102
}
330
C
100
AcDbDictionary
281
     1
  3
Imperial24
350
6B
  0
DICTIONARY
  5
D
102
{ACAD_REACTORS
330
C
102
}
330
C
100
AcDbDictionary
281
     1
  0
DICTIONARY
  5
62
102
{ACAD_REACTORS
330
C
102
}
330
C
100
AcDbDictionary
281
     1
  3
Layout1
350
6F
  3
Layout2
350
77
  3
Model
350
73
  0
DICTIONARY
  5
10
102
{ACAD_REACTORS
330
C
102
}
330
C
100
AcDbDictionary
281
     1
  3
ByBlock
350
19
  3
ByLayer
350
11
  3
Global
350
21
  0
DICTIONARY
  5
66
102
{ACAD_REACTORS
330
C
102
}
330
C
100
AcDbDictionary
281
     1
  3
Standard
350
67
  0
DICTIONARY
  5
5F
102
{ACAD_REACTORS
330
C
102
}
330
C
100
AcDbDictionary
281
     1
  3
Standard
350
60
  0
DICTIONARY
  5
61
102
{ACAD_REACTORS
330
C
102
}
330
C
100
AcDbDictionary
281
     1
  0
ACDBDICTIONARYWDFLT
  5
E
102
{ACAD_REACTORS
330
C
102
}
330
C
100
AcDbDictionary
281
     1
  3
Normal
350
F
100
AcDbDictionaryWithDefault
340
F
  0
DICTIONARY
  5
42
102
{ACAD_REACTORS
330
C
102
}
330
C
100
AcDbDictionary
281
     1
  3
A0
350
43
  3
A1
350
44
  3
A2
350
45
  3
A3
350
46
  3
A4
350
47
  3
A5
350
48
  3
A6
350
49
  3
A7
350
4A
  3
A8
350
4B
  3
A9
350
4C
  3
B0
350
4D
  3
B1
350
4E
  3
B2
350
4F
  3
B3
350
50
  3
B4
350
51
  3
B5
350
52
  3
B6
350
53
  0
DICTIONARY
  5
68
102
{ACAD_REACTORS
330
C
102
}
330
C
100
AcDbDictionary
281
     1
  3
Imperial24
350
69
  0
DICTIONARY
  5
64
102
{ACAD_REACTORS
330
C
102
}
330
C
100
AcDbDictionary
281
     1
  3
Standard
350
65
  0
DICTIONARY
  5
29
102
{ACAD_REACTORS
330
C
102
}
330
C
100
AcDbDictionary
281
     1
  3
2dWireframe
350
2F
  3
Basic
350
2E
  3
Brighten
350
35
  3
ColorChange
350
39
  3
Conceptual
350
32
  3
Dim
350
34
  3
EdgeColorOff
350
41
  3
Facepattern
350
38
  3
Flat
350
2A
  3
FlatWithEdges
350
2B
  3
Gouraud
350
2C
  3
GouraudWithEdges
350
2D
  3
Hidden
350
31
  3
JitterOff
350
3F
  3
Linepattern
350
37
  3
OverhangOff
350
40
  3
Realistic
350
33
  3
Shaded
350
3E
  3
Shaded with edges
350
3D
  3
Shades of Gray
350
3A
  3
Sketchy
350
3B
  3
Thicken
350
36
  3
Wireframe
350
30
  3
X-Ray
350
3C
  0
XRECORD
  5
FE
102
{ACAD_REACTORS
330
C
102
}
330
C
100
AcDbXrecord
280
     1
 90
        1
330
65
  0
DICTIONARY
  5
F6
102
{ACAD_REACTORS
330
C
102
}
330
C
100
AcDbDictionary
281
     1
  3
CANNOSCALE
350
FB
  3
CMLEADERSTYLE
350
F8
  3
CTABLESTYLE
350
F7
  3
CVIEWDETAILSTYLE
350
F9
  3
CVIEWSECTIONSTYLE
350
FA
  0
ACDBDETAILVIEWSTYLE
  5
6B
102
{ACAD_REACTORS
330
6A
102
}
330
6A
100
AcDbModelDocViewStyle
 70
     0
  3
Imperial24
290
     1
300
Imperial24
 90
        0
100
AcDbDetailViewStyle
 70
     0
 71
     0
 90
        3
 71
     1
340
55
 62
   256
 40
0.24
340
0
 62
   256
 40
0.24
300

 40
0.36
280
     3
 71
     2
340
5D
 90
       25
 62
   256
 71
     3
340
55
 62
   256
 40
0.24
 90
        1
 40
0.75
 90
        1
300
%<\AcVar ViewType \f "%tc1">% %<\AcVar ViewDetailId>%\PSCALE %<\AcVar ViewScale \f "%sn">%
 71
     4
340
5D
 90
       25
 62
   256
340
5D
 90
       25
 62
   256
280
     0
  0
LAYOUT
  5
6F
102
{ACAD_REACTORS
330
62
102
}
330
62
100
AcDbPlotSettings
  1

  2

  4

  6

 40
0.0
 41
0.0
 42
0.0
 43
0.0
 44
0.0
 45
0.0
 46
0.0
 47
0.0
 48
0.0
 49
0.0
140
0.0
141
0.0
142
1.0
143
1.0
 70
   688
 72
     0
 73
     0
 74
     5
  7

 75
    16
147
1.0
 76
     0
 77
     2
 78
   300
148
0.0
149
0.0
100
AcDbLayout
  1
Layout1
 70
     1
 71
     1
 10
0.0
 20
0.0
 11
12.0
 21
9.0
 12
0.0
 22
0.0
 32
0.0
 14
0.0
 24
0.0
 34
0.0
 15
0.0
 25
0.0
 35
0.0
146
0.0
 13
0.0
 23
0.0
 33
0.0
 16
1.0
 26
0.0
 36
0.0
 17
0.0
 27
1.0
 37
0.0
 76
     0
330
6C
  0
LAYOUT
  5
77
102
{ACAD_REACTORS
330
62
102
}
330
62
100
AcDbPlotSettings
  1

  2

  4

  6

 40
0.0
 41
0.0
 42
0.0
 43
0.0
 44
0.0
 45
0.0
 46
0.0
 47
0.0
 48
0.0
 49
0.0
140
0.0
141
0.0
142
1.0
143
1.0
 70
   688
 72
     0
 73
     0
 74
     5
  7

 75
    16
147
1.0
 76
     0
 77
     2
 78
   300
148
0.0
149
0.0
100
AcDbLayout
  1
Layout2
 70
     1
 71
     2
 10
0.0
 20
0.0
 11
12.0
 21
9.0
 12
0.0
 22
0.0
 32
0.0
 14
0.0
 24
0.0
 34
0.0
 15
0.0
 25
0.0
 35
0.0
146
0.0
 13
0.0
 23
0.0
 33
0.0
 16
1.0
 26
0.0
 36
0.0
 17
0.0
 27
1.0
 37
0.0
 76
     0
330
74
  0
LAYOUT
  5
73
102
{ACAD_REACTORS
330
62
102
}
330
62
100
AcDbPlotSettings
  1

  2

  4

  6

 40
0.0
 41
0.0
 42
0.0
 43
0.0
 44
0.0
 45
0.0
 46
0.0
 47
0.0
 48
0.0
 49
0.0
140
0.0
141
0.0
142
1.0
143
1.0
 70
  1712
 72
     0
 73
     0
 74
     0
  7

 75
     0
147
1.0
 76
     0
 77
     2
 78
   300
148
0.0
149
0.0
100
AcDbLayout
  1
Model
 70
     1
 71
     0
 10
0.0
 20
0.0
 11
12.0
 21
9.0
 12
0.0
 22
0.0
 32
0.0
 14
0.0
 24
0.0
 34
0.0
 15
0.0
 25
0.0
 35
0.0
146
0.0
 13
0.0
 23
0.0
 33
0.0
 16
1.0
 26
0.0
 36
0.0
 17
0.0
 27
1.0
 37
0.0
 76
     0
330
70
  0
MATERIAL
  5
19
102
{ACAD_XDICTIONARY
360
1A
102
}
102
{ACAD_REACTORS
330
10
102
}
330
10
100
AcDbMaterial
  1
ByBlock
 72
     0
 43
0.0208333333333333
 43
0.0
 43
0.0
 43
0.0
 43
0.0
 43
0.0208333333333333
 43
0.0
 43
0.0
 43
0.0
 43
0.0
 43
1.0
 43
0.0
 43
0.0
 43
0.0
 43
0.0
 43
1.0
 77
     0
 47
0.0208333333333333
 47
0.0
 47
0.0
 47
0.0
 47
0.0
 47
0.0208333333333333
 47
0.0
 47
0.0
 47
0.0
 47
0.0
 47
1.0
 47
0.0
 47
0.0
 47
0.0
 47
0.0
 47
1.0
171
     0
 49
0.0208333333333333
 49
0.0
 49
0.0
 49
0.0
 49
0.0
 49
0.0208333333333333
 49
0.0
 49
0.0
 49
0.0
 49
0.0
 49
1.0
 49
0.0
 49
0.0
 49
0.0
 49
0.0
 49
1.0
175
     0
142
0.0208333333333333
142
0.0
142
0.0
142
0.0
142
0.0
142
0.0208333333333333
142
0.0
142
0.0
142
0.0
142
0.0
142
1.0
142
0.0
142
0.0
142
0.0
142
0.0
142
1.0
179
     0
144
0.0208333333333333
144
0.0
144
0.0
144
0.0
144
0.0
144
0.0208333333333333
144
0.0
144
0.0
144
0.0
144
0.0
144
1.0
144
0.0
144
0.0
144
0.0
144
0.0
144
1.0
147
0.0208333333333333
147
0.0
147
0.0
147
0.0
147
0.0
147
0.0208333333333333
147
0.0
147
0.0
147
0.0
147
0.0
147
1.0
147
0.0
147
0.0
147
0.0
147
0.0
147
1.0
  0
MATERIAL
  5
11
102
{ACAD_XDICTIONARY
360
12
102
}
102
{ACAD_REACTORS
330
10
102
}
330
10
100
AcDbMaterial
  1
ByLayer
 72
     0
 43
0.0208333333333333
 43
0.0
 43
0.0
 43
0.0
 43
0.0
 43
0.0208333333333333
 43
0.0
 43
0.0
 43
0.0
 43
0.0
 43
1.0
 43
0.0
 43
0.0
 43
0.0
 43
0.0
 43
1.0
 77
     0
 47
0.0208333333333333
 47
0.0
 47
0.0
 47
0.0
 47
0.0
 47
0.0208333333333333
 47
0.0
 47
0.0
 47
0.0
 47
0.0
 47
1.0
 47
0.0
 47
0.0
 47
0.0
 47
0.0
 47
1.0
171
     0
 49
0.0208333333333333
 49
0.0
 49
0.0
 49
0.0
 49
0.0
 49
0.0208333333333333
 49
0.0
 49
0.0
 49
0.0
 49
0.0
 49
1.0
 49
0.0
 49
0.0
 49
0.0
 49
0.0
 49
1.0
175
     0
142
0.0208333333333333
142
0.0
142
0.0
142
0.0
142
0.0
142
0.0208333333333333
142
0.0
142
0.0
142
0.0
142
0.0
142
1.0
142
0.0
142
0.0
142
0.0
142
0.0
142
1.0
179
     0
144
0.0208333333333333
144
0.0
144
0.0
144
0.0
144
0.0
144
0.0208333333333333
144
0.0
144
0.0
144
0.0
144
0.0
144
1.0
144
0.0
144
0.0
144
0.0
144
0.0
144
1.0
147
0.0208333333333333
147
0.0
147
0.0
147
0.0
147
0.0
147
0.0208333333333333
147
0.0
147
0.0
147
0.0
147
0.0
147
1.0
147
0.0
147
0.0
147
0.0
147
0.0
147
1.0
  0
MATERIAL
  5
21
102
{ACAD_XDICTIONARY
360
22
102
}
102
{ACAD_REACTORS
330
10
102
}
330
10
100
AcDbMaterial
  1
Global
 72
     0
 43
0.0208333333333333
 43
0.0
 43
0.0
 43
0.0
 43
0.0
 43
0.0208333333333333
 43
0.0
 43
0.0
 43
0.0
 43
0.0
 43
1.0
 43
0.0
 43
0.0
 43
0.0
 43
0.0
 43
1.0
 77
     0
 47
0.0208333333333333
 47
0.0
 47
0.0
 47
0.0
 47
0.0
 47
0.0208333333333333
 47
0.0
 47
0.0
 47
0.0
 47
0.0
 47
1.0
 47
0.0
 47
0.0
 47
0.0
 47
0.0
 47
1.0
171
     0
 49
0.0208333333333333
 49
0.0
 49
0.0
 49
0.0
 49
0.0
 49
0.0208333333333333
 49
0.0
 49
0.0
 49
0.0
 49
0.0
 49
1.0
 49
0.0
 49
0.0
 49
0.0
 49
0.0
 49
1.0
175
     0
142
0.0208333333333333
142
0.0
142
0.0
142
0.0
142
0.0
142
0.0208333333333333
142
0.0
142
0.0
142
0.0
142
0.0
142
1.0
142
0.0
142
0.0
142
0.0
142
0.0
142
1.0
179
     0
144
0.0208333333333333
144
0.0
144
0.0
144
0.0
144
0.0
144
0.0208333333333333
144
0.0
144
0.0
144
0.0
144
0.0
144
1.0
144
0.0
144
0.0
144
0.0
144
0.0
144
1.0
147
0.0208333333333333
147
0.0
147
0.0
147
0.0
147
0.0
147
0.0208333333333333
147
0.0
147
0.0
147
0.0
147
0.0
147
1.0
147
0.0
147
0.0
147
0.0
147
0.0
147
1.0
  0
MLEADERSTYLE
  5
67
102
{ACAD_REACTORS
330
66
102
}
330
66
100
AcDbMLeaderStyle
179
     2
170
     2
171
     1
172
     0
 90
        2
 40
0.0
 41
0.0
173
     1
 91
-1056964608
340
5B
 92
       -2
290
     1
 42
0.09
291
     1
 43
0.36
  3
Standard
 44
0.18
300

342
55
174
     1
178
     6
175
     1
176
     0
 93
-1056964608
 45
0.18
292
     0
297
     0
 46
0.18
 94
-1056964608
 47
1.0
 49
1.0
140
1.0
293
     1
141
0.0
294
     1
177
     0
142
1.0
295
     1
296
     0
143
0.125
271
     0
272
     9
273
     9
298
     1
  0
MLINESTYLE
  5
60
102
{ACAD_REACTORS
330
5F
102
}
330
5F
100
AcDbMlineStyle
  2
STANDARD
 70
     0
  3

 62
   256
 51
90.0
 52
90.0
 71
     2
 49
0.5
 62
   256
  6
BYLAYER
 49
-0.5
 62
   256
  6
BYLAYER
  0
ACDBPLACEHOLDER
  5
F
102
{ACAD_REACTORS
330
E
102
}
330
E
  0
SCALE
  5
43
102
{ACAD_REACTORS
330
42
102
}
330
42
100
AcDbScale
 70
     0
300
1:1
140
1.0
141
1.0
290
     1
  0
SCALE
  5
44
102
{ACAD_REACTORS
330
42
102
}
330
42
100
AcDbScale
 70
     0
300
1/128" = 1'-0"
140
0.0078125
141
12.0
290
     0
  0
SCALE
  5
45
102
{ACAD_REACTORS
330
42
102
}
330
42
100
AcDbScale
 70
     0
300
1/64" = 1'-0"
140
0.015625
141
12.0
290
     0
  0
SCALE
  5
46
102
{ACAD_REACTORS
330
42
102
}
330
42
100
AcDbScale
 70
     0
300
1/32" = 1'-0"
140
0.03125
141
12.0
290
     0
  0
SCALE
  5
47
102
{ACAD_REACTORS
330
42
102
}
330
42
100
AcDbScale
 70
     0
300
1/16" = 1'-0"
140
0.0625
141
12.0
290
     0
  0
SCALE
  5
48
102
{ACAD_REACTORS
330
42
102
}
330
42
100
AcDbScale
 70
     0
300
3/32" = 1'-0"
140
0.09375
141
12.0
290
     0
  0
SCALE
  5
49
102
{ACAD_REACTORS
330
42
102
}
330
42
100
AcDbScale
 70
     0
300
1/8" = 1'-0"
140
0.125
141
12.0
290
     0
  0
SCALE
  5
4A
102
{ACAD_REACTORS
330
42
102
}
330
42
100
AcDbScale
 70
     0
300
3/16" = 1'-0"
140
0.1875
141
12.0
290
     0
  0
SCALE
  5
4B
102
{ACAD_REACTORS
330
42
102
}
330
42
100
AcDbScale
 70
     0
300
1/4" = 1'-0"
140
0.25
141
12.0
290
     0
  0
SCALE
  5
4C
102
{ACAD_REACTORS
330
42
102
}
330
42
100
AcDbScale
 70
     0
300
3/8" = 1'-0"
140
0.375
141
12.0
290
     0
  0
SCALE
  5
4D
102
{ACAD_REACTORS
330
42
102
}
330
42
100
AcDbScale
 70
     0
300
1/2" = 1'-0"
140
0.5
141
12.0
290
     0
  0
SCALE
  5
4E
102
{ACAD_REACTORS
330
42
102
}
330
42
100
AcDbScale
 70
     0
300
3/4" = 1'-0"
140
0.75
141
12.0
290
     0
  0
SCALE
  5
4F
102
{ACAD_REACTORS
330
42
102
}
330
42
100
AcDbScale
 70
     0
300
1" = 1'-0"
140
1.0
141
12.0
290
     0
  0
SCALE
  5
50
102
{ACAD_REACTORS
330
42
102
}
330
42
100
AcDbScale
 70
     0
300
1-1/2" = 1'-0"
140
1.5
141
12.0
290
     0
  0
SCALE
  5
51
102
{ACAD_REACTORS
330
42
102
}
330
42
100
AcDbScale
 70
     0
300
3" = 1'-0"
140
3.0
141
12.0
290
     0
  0
SCALE
  5
52
102
{ACAD_REACTORS
330
42
102
}
330
42
100
AcDbScale
 70
     0
300
6" = 1'-0"
140
6.0
141
12.0
290
     0
  0
SCALE
  5
53
102
{ACAD_REACTORS
330
42
102
}
330
42
100
AcDbScale
 70
     0
300
1'-0" = 1'-0"
140
12.0
141
12.0
290
     0
  0
ACDBSECTIONVIEWSTYLE
  5
69
102
{ACAD_REACTORS
330
68
102
}
330
68
100
AcDbModelDocViewStyle
 70
     0
  3
Imperial24
290
     1
300
Imperial24
 90
        0
100
AcDbSectionViewStyle
 70
     0
 71
     0
 90
       78
 71
     1
340
55
 62
   256
 40
0.24
340
0
340
0
 62
   256
 40
0.24
300
I, O, Q, S, X, Z
 40
0.48
 90
        3
 40
0.18
 90
        1
 71
     2
340
5D
 90
       25
 62
   256
340
5D
 90
       50
 62
   256
 40
0.24
 40
0.0
 40
0.24
 71
     3
340
55
 62
   256
 40
0.24
 90
        1
 40
0.75
 90
        1
300
%<\AcVar ViewType \f "%tc1">% %<\AcVar ViewSectionStartId>%-%<\AcVar ViewSectionEndId>%\PSCALE %<\AcVar ViewScale \f "%sn">%
 71
     4
 62
   256
 62
   257
300
ANSI31
 40
1.0
 90
        0
290
     0
290
     0
 90
        6
 40
0.0
 40
1.570796326794896
 40
0.2617993877991494
 40
1.308996938995747
 40
-0.2617993877991494
 40
1.832595714594046
  0
TABLESTYLE
  5
65
102
{ACAD_XDICTIONARY
360
FC
102
}
102
{ACAD_REACTORS
330
64
102
}
330
64
100
AcDbTableStyle
280
     0
  3
Standard
 70
     0
 71
     0
 40
0.06
 41
0.06
280
     0
281
     0
  7
Standard
140
0.18
170
     2
 62
     0
 63
     7
283
     0
 90
      512
 91
        0
  1

274
    -2
284
     1
 64
     0
275
    -2
285
     1
 65
     0
276
    -2
286
     1
 66
     0
277
    -2
287
     1
 67
     0
278
    -2
288
     1
 68
     0
279
    -2
289
     1
 69
     0
  7
Standard
140
0.25
170
     5
 62
     0
 63
     7
283
     0
 90
      512
 91
        0
  1

274
    -2
284
     1
 64
     0
275
    -2
285
     1
 65
     0
276
    -2
286
     1
 66
     0
277
    -2
287
     1
 67
     0
278
    -2
288
     1
 68
     0
279
    -2
289
     1
 69
     0
  7
Standard
140
0.18
170
     5
 62
     0
 63
     7
283
     0
 90
      512
 91
        0
  1

274
    -2
284
     1
 64
     0
275
    -2
285
     1
 65
     0
276
    -2
286
     1
 66
     0
277
    -2
287
     1
 67
     0
278
    -2
288
     1
 68
     0
279
    -2
289
     1
 69
     0
  0
VISUALSTYLE
  5
2F
102
{ACAD_REACTORS
330
29
102
}
330
29
100
AcDbVisualStyle
  2
2dWireframe
 70
     4
177
     3
291
     0
 70
    58
 90
        0
176
     1
 90
        2
176
     1
 90
        0
176
     1
 90
        0
176
     1
 40
0.6
176
     1
 40
30.0
176
     1
 62
     7
420
 16777215
176
     1
 90
        1
176
     1
 90
        4
176
     1
 62
     7
176
     1
 62
   257
176
     1
 90
        1
176
     1
 90
        1
176
     1
 40
1.0
176
     1
 90
        0
176
     1
 62
   257
176
     1
 40
1.0
176
     1
 90
        1
176
     1
 90
        6
176
     1
 90
        2
176
     1
 62
     7
176
     1
 90
        5
176
     1
 90
        0
176
     1
 90
        0
176
     1
290
     0
176
     1
 90
        1
176
     1
 40
0.0
176
     1
 90
        0
176
     1
290
     1
176
     1
290
     1
176
     1
290
     0
176
     1
290
     0
176
     1
290
     0
176
     1
290
     0
176
     1
290
     0
176
     1
290
     0
176
     1
290
     0
176
     1
 90
       50
176
     1
 40
0.0
176
     1
 40
1.0
176
     1
 90
        0
176
     1
 62
    18
420
        0
176
     1
 90
       50
176
     1
 90
        3
176
     1
 62
     5
420
      255
176
     1
290
     0
176
     1
 90
       50
176
     1
 90
       50
176
     1
 90
       50
176
     1
290
     0
176
     1
 90
       50
176
     1
 62
   256
176
     0
 40
1.0
176
     0
 90
        2
176
     1
  1
strokes_ogs.tif
176
     1
290
     0
176
     1
 40
1.0
176
     1
 40
1.0
176
     1
  0
VISUALSTYLE
  5
2E
102
{ACAD_REACTORS
330
29
102
}
330
29
100
AcDbVisualStyle
  2
Basic
 70
     7
177
     3
291
     1
 70
    58
 90
        1
176
     1
 90
        0
176
     1
 90
        1
176
     1
 90
        0
176
     1
 40
0.6
176
     1
 40
30.0
176
     1
 62
     7
420
 16777215
176
     1
 90
        0
176
     1
 90
        4
176
     1
 62
     7
176
     1
 62
   257
176
     1
 90
        1
176
     1
 90
        1
176
     1
 40
1.0
176
     1
 90
        8
176
     1
 62
     7
176
     1
 40
1.0
176
     1
 90
        1
176
     1
 90
        6
176
     1
 90
        2
176
     1
 62
     7
176
     1
 90
        5
176
     1
 90
        0
176
     1
 90
        0
176
     1
290
     0
176
     1
 90
        1
176
     1
 40
0.0
176
     1
 90
        0
176
     1
290
     0
176
     1
290
     1
176
     1
290
     1
176
     1
290
     0
176
     1
290
     0
176
     1
290
     0
176
     1
290
     0
176
     1
290
     0
176
     1
290
     0
176
     1
 90
       50
176
     1
 40
0.0
176
     1
 40
1.0
176
     1
 90
        0
176
     1
 62
    18
420
        0
176
     1
 90
       50
176
     1
 90
        3
176
     1
 62
     5
420
      255
176
     1
290
     0
176
     1
 90
       50
176
     1
 90
       50
176
     1
 90
       50
176
     1
290
     0
176
     1
 90
       50
176
     1
 62
   256
176
     0
 40
1.0
176
     0
 90
        2
176
     1
  1
strokes_ogs.tif
176
     1
290
     0
176
     1
 40
1.0
176
     1
 40
1.0
176
     1
  0
VISUALSTYLE
  5
35
102
{ACAD_REACTORS
330
29
102
}
330
29
100
AcDbVisualStyle
  2
Brighten
 70
    12
177
     3
291
     1
 70
    58
 90
        2
176
     1
 90
        2
176
     1
 90
        0
176
     1
 90
        0
176
     1
 40
0.6
176
     1
 40
30.0
176
     1
 62
     7
420
 16777215
176
     1
 90
        1
176
     1
 90
        4
176
     1
 62
     7
176
     1
 62
   257
176
     1
 90
        1
176
     1
 90
        1
176
     1
 40
1.0
176
     1
 90
        8
176
     1
 62
     7
176
     1
 40
1.0
176
     1
 90
        1
176
     1
 90
        6
176
     1
 90
        2
176
     1
 62
     7
176
     1
 90
        5
176
     1
 90
        0
176
     1
 90
        0
176
     1
290
     0
176
     1
 90
        1
176
     1
 40
50.0
176
     1
 90
        0
176
     1
290
     0
176
     1
290
     1
176
     1
290
     1
176
     1
290
     0
176
     1
290
     0
176
     1
290
     0
176
     1
290
     0
176
     1
290
     0
176
     1
290
     0
176
     1
 90
       50
176
     1
 40
0.0
176
     1
 40
1.0
176
     1
 90
        0
176
     1
 62
    18
420
        0
176
     1
 90
       50
176
     1
 90
        3
176
     1
 62
     5
420
      255
176
     1
290
     0
176
     1
 90
       50
176
     1
 90
       50
176
     1
 90
       50
176
     1
290
     0
176
     1
 90
       50
176
     1
 62
   256
176
     0
 40
1.0
176
     0
 90
        2
176
     1
  1
strokes_ogs.tif
176
     1
290
     0
176
     1
 40
1.0
176
     1
 40
1.0
176
     1
  0
VISUALSTYLE
  5
39
102
{ACAD_REACTORS
330
29
102
}
330
29
100
AcDbVisualStyle
  2
ColorChange
 70
    16
177
     3
291
     1
 70
    58
 90
        2
176
     1
 90
        2
176
     1
 90
        3
176
     1
 90
        0
176
     1
 40
0.6
176
     1
 40
30.0
176
     1
 62
     8
420
  8421504
176
     1
 90
        1
176
     1
 90
        4
176
     1
 62
     7
176
     1
 62
   257
176
     1
 90
        1
176
     1
 90
        1
176
     1
 40
1.0
176
     1
 90
        8
176
     1
 62
     8
420
  8421504
176
     1
 40
1.0
176
     1
 90
        1
176
     1
 90
        6
176
     1
 90
        2
176
     1
 62
     7
176
     1
 90
        5
176
     1
 90
        0
176
     1
 90
        0
176
     1
290
     0
176
     1
 90
        1
176
     1
 40
0.0
176
     1
 90
        0
176
     1
290
     0
176
     1
290
     1
176
     1
290
     1
176
     1
290
     0
176
     1
290
     0
176
     1
290
     0
176
     1
290
     0
176
     1
290
     0
176
     1
290
     0
176
     1
 90
       50
176
     1
 40
0.0
176
     1
 40
1.0
176
     1
 90
        0
176
     1
 62
    18
420
        0
176
     1
 90
       50
176
     1
 90
        3
176
     1
 62
     5
420
      255
176
     1
290
     0
176
     1
 90
       50
176
     1
 90
       50
176
     1
 90
       50
176
     1
290
     0
176
     1
 90
       50
176
     1
 62
   256
176
     0
 40
1.0
176
     0
 90
        2
176
     1
  1
strokes_ogs.tif
176
     1
290
     0
176
     1
 40
1.0
176
     1
 40
1.0
176
     1
  0
VISUALSTYLE
  5
32
102
{ACAD_REACTORS
330
29
102
}
330
29
100
AcDbVisualStyle
  2
Conceptual
 70
     9
177
     3
291
     0
 70
    58
 90
        3
176
     1
 90
        2
176
     1
 90
        0
176
     1
 90
        0
176
     1
 40
0.6
176
     1
 40
30.0
176
     1
 62
     7
420
 16777215
176
     1
 90
        2
176
     1
 90
        2
176
     1
 62
     7
176
     1
 62
   257
176
     1
 90
        1
176
     1
 90
        1
176
     1
 40
179.0
176
     1
 90
        8
176
     1
 62
     7
176
     1
 40
1.0
176
     1
 90
        1
176
     1
 90
        6
176
     1
 90
        2
176
     1
 62
     7
176
     1
 90
        3
176
     1
 90
        0
176
     1
 90
        0
176
     1
290
     0
176
     1
 90
        1
176
     1
 40
0.0
176
     1
 90
        0
176
     1
290
     0
176
     1
290
     1
176
     1
290
     1
176
     1
290
     0
176
     1
290
     0
176
     1
290
     0
176
     1
290
     0
176
     1
290
     0
176
     1
290
     0
176
     1
 90
       50
176
     1
 40
0.0
176
     1
 40
1.0
176
     1
 90
        0
176
     1
 62
    18
420
        0
176
     1
 90
       50
176
     1
 90
        3
176
     1
 62
     5
420
      255
176
     1
290
     0
176
     1
 90
       50
176
     1
 90
       50
176
     1
 90
       50
176
     1
290
     0
176
     1
 90
       50
176
     1
 62
   256
176
     0
 40
1.0
176
     0
 90
        2
176
     1
  1
strokes_ogs.tif
176
     1
290
     0
176
     1
 40
1.0
176
     1
 40
1.0
176
     1
  0
VISUALSTYLE
  5
34
102
{ACAD_REACTORS
330
29
102
}
330
29
100
AcDbVisualStyle
  2
Dim
 70
    11
177
     3
291
     1
 70
    58
 90
        2
176
     1
 90
        2
176
     1
 90
        0
176
     1
 90
        0
176
     1
 40
0.6
176
     1
 40
30.0
176
     1
 62
     7
420
 16777215
176
     1
 90
        1
176
     1
 90
        4
176
     1
 62
     7
176
     1
 62
   257
176
     1
 90
        1
176
     1
 90
        1
176
     1
 40
1.0
176
     1
 90
        8
176
     1
 62
     7
176
     1
 40
1.0
176
     1
 90
        1
176
     1
 90
        6
176
     1
 90
        2
176
     1
 62
     7
176
     1
 90
        5
176
     1
 90
        0
176
     1
 90
        0
176
     1
290
     0
176
     1
 90
        1
176
     1
 40
-50.0
176
     1
 90
        0
176
     1
290
     0
176
     1
290
     1
176
     1
290
     1
176
     1
290
     0
176
     1
290
     0
176
     1
290
     0
176
     1
290
     0
176
     1
290
     0
176
     1
290
     0
176
     1
 90
       50
176
     1
 40
0.0
176
     1
 40
1.0
176
     1
 90
        0
176
     1
 62
    18
420
        0
176
     1
 90
       50
176
     1
 90
        3
176
     1
 62
     5
420
      255
176
     1
290
     0
176
     1
 90
       50
176
     1
 90
       50
176
     1
 90
       50
176
     1
290
     0
176
     1
 90
       50
176
     1
 62
   256
176
     0
 40
1.0
176
     0
 90
        2
176
     1
  1
strokes_ogs.tif
176
     1
290
     0
176
     1
 40
1.0
176
     1
 40
1.0
176
     1
  0
VISUALSTYLE
  5
41
102
{ACAD_REACTORS
330
29
102
}
330
29
100
AcDbVisualStyle
  2
EdgeColorOff
 70
    22
177
     3
291
     1
 70
    58
 90
        2
176
     0
 90
        2
176
     0
 90
        0
176
     0
 90
        0
176
     0
 40
0.6
176
     0
 40
30.0
176
     0
 62
     7
420
 16777215
176
     0
 90
        1
176
     0
 90
        4
176
     0
 62
     7
176
     0
 62
   257
176
     0
 90
        1
176
     0
 90
        1
176
     0
 40
1.0
176
     0
 90
        8
176
     2
 62
     7
176
     0
 40
1.0
176
     0
 90
        1
176
     0
 90
        6
176
     0
 90
        2
176
     0
 62
     7
176
     0
 90
        5
176
     0
 90
        0
176
     0
 90
        0
176
     0
290
     0
176
     0
 90
        1
176
     0
 40
0.0
176
     0
 90
        0
176
     0
290
     0
176
     0
290
     1
176
     0
290
     1
176
     0
290
     0
176
     0
290
     0
176
     0
290
     0
176
     0
290
     0
176
     0
290
     0
176
     0
290
     0
176
     0
 90
       50
176
     0
 40
0.0
176
     0
 40
1.0
176
     0
 90
        0
176
     0
 62
    18
420
        0
176
     0
 90
       50
176
     0
 90
        3
176
     0
 62
     5
420
      255
176
     0
290
     0
176
     0
 90
       50
176
     0
 90
       50
176
     0
 90
       50
176
     0
290
     0
176
     0
 90
       50
176
     0
 62
   256
176
     0
 40
1.0
176
     0
 90
        2
176
     0
  1
strokes_ogs.tif
176
     0
290
     0
176
     0
 40
1.0
176
     0
 40
1.0
176
     0
  0
VISUALSTYLE
  5
38
102
{ACAD_REACTORS
330
29
102
}
330
29
100
AcDbVisualStyle
  2
Facepattern
 70
    15
177
     3
291
     1
 70
    58
 90
        2
176
     1
 90
        2
176
     1
 90
        0
176
     1
 90
        0
176
     1
 40
0.6
176
     1
 40
30.0
176
     1
 62
     7
420
 16777215
176
     1
 90
        1
176
     1
 90
        4
176
     1
 62
     7
176
     1
 62
   257
176
     1
 90
        1
176
     1
 90
        1
176
     1
 40
1.0
176
     1
 90
        8
176
     1
 62
     7
176
     1
 40
1.0
176
     1
 90
        1
176
     1
 90
        6
176
     1
 90
        2
176
     1
 62
     7
176
     1
 90
        5
176
     1
 90
        0
176
     1
 90
        0
176
     1
290
     0
176
     1
 90
        1
176
     1
 40
0.0
176
     1
 90
        0
176
     1
290
     0
176
     1
290
     1
176
     1
290
     1
176
     1
290
     0
176
     1
290
     0
176
     1
290
     0
176
     1
290
     0
176
     1
290
     0
176
     1
290
     0
176
     1
 90
       50
176
     1
 40
0.0
176
     1
 40
1.0
176
     1
 90
        0
176
     1
 62
    18
420
        0
176
     1
 90
       50
176
     1
 90
        3
176
     1
 62
     5
420
      255
176
     1
290
     0
176
     1
 90
       50
176
     1
 90
       50
176
     1
 90
       50
176
     1
290
     0
176
     1
 90
       50
176
     1
 62
   256
176
     0
 40
1.0
176
     0
 90
        2
176
     1
  1
strokes_ogs.tif
176
     1
290
     0
176
     1
 40
1.0
176
     1
 40
1.0
176
     1
  0
VISUALSTYLE
  5
2A
102
{ACAD_REACTORS
330
29
102
}
330
29
100
AcDbVisualStyle
  2
Flat
 70
     0
177
     3
291
     1
 70
    58
 90
        2
176
     1
 90
        1
176
     1
 90
        1
176
     1
 90
        2
176
     1
 40
0.6
176
     1
 40
30.0
176
     1
 62
     7
420
 16777215
176
     1
 90
        0
176
     1
 90
        0
176
     1
 62
     7
176
     1
 62
   257
176
     1
 90
        1
176
     1
 90
        1
176
     1
 40
1.0
176
     1
 90
        8
176
     1
 62
     7
176
     1
 40
1.0
176
     1
 90
        1
176
     1
 90
        6
176
     1
 90
        2
176
     1
 62
     7
176
     1
 90
        5
176
     1
 90
        0
176
     1
 90
        0
176
     1
290
     0
176
     1
 90
       13
176
     1
 40
0.0
176
     1
 90
        0
176
     1
290
     0
176
     1
290
     1
176
     1
290
     1
176
     1
290
     0
176
     1
290
     0
176
     1
290
     0
176
     1
290
     0
176
     1
290
     0
176
     1
290
     0
176
     1
 90
       50
176
     1
 40
0.0
176
     1
 40
1.0
176
     1
 90
        0
176
     1
 62
    18
420
        0
176
     1
 90
       50
176
     1
 90
        3
176
     1
 62
     5
420
      255
176
     1
290
     0
176
     1
 90
       50
176
     1
 90
       50
176
     1
 90
       50
176
     1
290
     0
176
     1
 90
       50
176
     1
 62
   256
176
     0
 40
1.0
176
     0
 90
        2
176
     1
  1
strokes_ogs.tif
176
     1
290
     0
176
     1
 40
1.0
176
     1
 40
1.0
176
     1
  0
VISUALSTYLE
  5
2B
102
{ACAD_REACTORS
330
29
102
}
330
29
100
AcDbVisualStyle
  2
FlatWithEdges
 70
     1
177
     3
291
     1
 70
    58
 90
        2
176
     1
 90
        1
176
     1
 90
        1
176
     1
 90
        2
176
     1
 40
0.6
176
     1
 40
30.0
176
     1
 62
     7
420
 16777215
176
     1
 90
        1
176
     1
 90
        0
176
     1
 62
     7
176
     1
 62
   257
176
     1
 90
        1
176
     1
 90
        1
176
     1
 40
1.0
176
     1
 90
        0
176
     1
 62
   257
176
     1
 40
1.0
176
     1
 90
        1
176
     1
 90
        6
176
     1
 90
        2
176
     1
 62
     7
176
     1
 90
        5
176
     1
 90
        0
176
     1
 90
        0
176
     1
290
     0
176
     1
 90
       13
176
     1
 40
0.0
176
     1
 90
        0
176
     1
290
     0
176
     1
290
     1
176
     1
290
     1
176
     1
290
     0
176
     1
290
     0
176
     1
290
     0
176
     1
290
     0
176
     1
290
     0
176
     1
290
     0
176
     1
 90
       50
176
     1
 40
0.0
176
     1
 40
1.0
176
     1
 90
        0
176
     1
 62
    18
420
        0
176
     1
 90
       50
176
     1
 90
        3
176
     1
 62
     5
420
      255
176
     1
290
     0
176
     1
 90
       50
176
     1
 90
       50
176
     1
 90
       50
176
     1
290
     0
176
     1
 90
       50
176
     1
 62
   256
176
     0
 40
1.0
176
     0
 90
        2
176
     1
  1
strokes_ogs.tif
176
     1
290
     0
176
     1
 40
1.0
176
     1
 40
1.0
176
     1
  0
VISUALSTYLE
  5
2C
102
{ACAD_REACTORS
330
29
102
}
330
29
100
AcDbVisualStyle
  2
Gouraud
 70
     2
177
     3
291
     1
 70
    58
 90
        2
176
     1
 90
        2
176
     1
 90
        1
176
     1
 90
        2
176
     1
 40
0.6
176
     1
 40
30.0
176
     1
 62
     7
420
 16777215
176
     1
 90
        0
176
     1
 90
        0
176
     1
 62
     7
176
     1
 62
   257
176
     1
 90
        1
176
     1
 90
        1
176
     1
 40
1.0
176
     1
 90
        0
176
     1
 62
     7
176
     1
 40
1.0
176
     1
 90
        1
176
     1
 90
        6
176
     1
 90
        2
176
     1
 62
     7
176
     1
 90
        5
176
     1
 90
        0
176
     1
 90
        0
176
     1
290
     0
176
     1
 90
       13
176
     1
 40
0.0
176
     1
 90
        0
176
     1
290
     0
176
     1
290
     1
176
     1
290
     1
176
     1
290
     0
176
     1
290
     0
176
     1
290
     0
176
     1
290
     0
176
     1
290
     0
176
     1
290
     0
176
     1
 90
       50
176
     1
 40
0.0
176
     1
 40
1.0
176
     1
 90
        0
176
     1
 62
    18
420
        0
176
     1
 90
       50
176
     1
 90
        3
176
     1
 62
     5
420
      255
176
     1
290
     0
176
     1
 90
       50
176
     1
 90
       50
176
     1
 90
       50
176
     1
290
     0
176
     1
 90
       50
176
     1
 62
   256
176
     0
 40
1.0
176
     0
 90
        2
176
     1
  1
strokes_ogs.tif
176
     1
290
     0
176
     1
 40
1.0
176
     1
 40
1.0
176
     1
  0
VISUALSTYLE
  5
2D
102
{ACAD_REACTORS
330
29
102
}
330
29
100
AcDbVisualStyle
  2
GouraudWithEdges
 70
     3
177
     3
291
     1
 70
    58
 90
        2
176
     1
 90
        2
176
     1
 90
        1
176
     1
 90
        2
176
     1
 40
0.6
176
     1
 40
30.0
176
     1
 62
     7
420
 16777215
176
     1
 90
        1
176
     1
 90
        0
176
     1
 62
     7
176
     1
 62
   257
176
     1
 90
        1
176
     1
 90
        1
176
     1
 40
1.0
176
     1
 90
        0
176
     1
 62
   257
176
     1
 40
1.0
176
     1
 90
        1
176
     1
 90
        6
176
     1
 90
        2
176
     1
 62
     7
176
     1
 90
        5
176
     1
 90
        0
176
     1
 90
        0
176
     1
290
     0
176
     1
 90
       13
176
     1
 40
0.0
176
     1
 90
        0
176
     1
290
     0
176
     1
290
     1
176
     1
290
     1
176
     1
290
     0
176
     1
290
     0
176
     1
290
     0
176
     1
290
     0
176
     1
290
     0
176
     1
290
     0
176
     1
 90
       50
176
     1
 40
0.0
176
     1
 40
1.0
176
     1
 90
        0
176
     1
 62
    18
420
        0
176
     1
 90
       50
176
     1
 90
        3
176
     1
 62
     5
420
      255
176
     1
290
     0
176
     1
 90
       50
176
     1
 90
       50
176
     1
 90
       50
176
     1
290
     0
176
     1
 90
       50
176
     1
 62
   256
176
     0
 40
1.0
176
     0
 90
        2
176
     1
  1
strokes_ogs.tif
176
     1
290
     0
176
     1
 40
1.0
176
     1
 40
1.0
176
     1
  0
VISUALSTYLE
  5
31
102
{ACAD_REACTORS
330
29
102
}
330
29
100
AcDbVisualStyle
  2
Hidden
 70
     6
177
     3
291
     0
 70
    58
 90
        1
176
     1
 90
        2
176
     1
 90
        2
176
     1
 90
        0
176
     1
 40
0.6
176
     1
 40
30.0
176
     1
 62
     7
420
 16777215
176
     1
 90
        2
176
     1
 90
        2
176
     1
 62
     7
176
     1
 62
   257
176
     1
 90
        2
176
     1
 90
        1
176
     1
 40
40.0
176
     1
 90
        0
176
     1
 62
   257
176
     1
 40
1.0
176
     1
 90
        1
176
     1
 90
        6
176
     1
 90
        2
176
     1
 62
     7
176
     1
 90
        3
176
     1
 90
        0
176
     1
 90
        0
176
     1
290
     0
176
     1
 90
        1
176
     1
 40
0.0
176
     1
 90
        0
176
     1
290
     0
176
     1
290
     1
176
     1
290
     1
176
     1
290
     0
176
     1
290
     0
176
     1
290
     0
176
     1
290
     0
176
     1
290
     0
176
     1
290
     0
176
     1
 90
       50
176
     1
 40
0.0
176
     1
 40
1.0
176
     1
 90
        0
176
     1
 62
    18
420
        0
176
     1
 90
       50
176
     1
 90
        3
176
     1
 62
     5
420
      255
176
     1
290
     0
176
     1
 90
       50
176
     1
 90
       50
176
     1
 90
       50
176
     1
290
     0
176
     1
 90
       50
176
     1
 62
   256
176
     0
 40
1.0
176
     0
 90
        2
176
     1
  1
strokes_ogs.tif
176
     1
290
     0
176
     1
 40
1.0
176
     1
 40
1.0
176
     1
  0
VISUALSTYLE
  5
3F
102
{ACAD_REACTORS
330
29
102
}
330
29
100
AcDbVisualStyle
  2
JitterOff
 70
    20
177
     3
291
     1
 70
    58
 90
        2
176
     0
 90
        2
176
     0
 90
        0
176
     0
 90
        0
176
     0
 40
0.6
176
     0
 40
30.0
176
     0
 62
     7
420
 16777215
176
     0
 90
        1
176
     0
 90
        4
176
     0
 62
     7
176
     0
 62
   257
176
     0
 90
        1
176
     0
 90
        1
176
     0
 40
1.0
176
     0
 90
       10
176
     2
 62
     7
176
     0
 40
1.0
176
     0
 90
        1
176
     0
 90
        6
176
     0
 90
        2
176
     0
 62
     7
176
     0
 90
        5
176
     0
 90
        0
176
     0
 90
        0
176
     0
290
     0
176
     0
 90
        1
176
     0
 40
0.0
176
     0
 90
        0
176
     0
290
     0
176
     0
290
     1
176
     0
290
     1
176
     0
290
     0
176
     0
290
     0
176
     0
290
     0
176
     0
290
     0
176
     0
290
     0
176
     0
290
     0
176
     0
 90
       50
176
     0
 40
0.0
176
     0
 40
1.0
176
     0
 90
        0
176
     0
 62
    18
420
        0
176
     0
 90
       50
176
     0
 90
        3
176
     0
 62
     5
420
      255
176
     0
290
     0
176
     0
 90
       50
176
     0
 90
       50
176
     0
 90
       50
176
     0
290
     0
176
     0
 90
       50
176
     0
 62
   256
176
     0
 40
1.0
176
     0
 90
        2
176
     0
  1
strokes_ogs.tif
176
     0
290
     0
176
     0
 40
1.0
176
     0
 40
1.0
176
     0
  0
VISUALSTYLE
  5
37
102
{ACAD_REACTORS
330
29
102
}
330
29
100
AcDbVisualStyle
  2
Linepattern
 70
    14
177
     3
291
     1
 70
    58
 90
        2
176
     1
 90
        2
176
     1
 90
        0
176
     1
 90
        0
176
     1
 40
0.6
176
     1
 40
30.0
176
     1
 62
     7
420
 16777215
176
     1
 90
        1
176
     1
 90
        4
176
     1
 62
     7
176
     1
 62
   257
176
     1
 90
        7
176
     1
 90
        7
176
     1
 40
1.0
176
     1
 90
        8
176
     1
 62
     7
176
     1
 40
1.0
176
     1
 90
        1
176
     1
 90
        6
176
     1
 90
        2
176
     1
 62
     7
176
     1
 90
        5
176
     1
 90
        0
176
     1
 90
        0
176
     1
290
     0
176
     1
 90
        1
176
     1
 40
0.0
176
     1
 90
        0
176
     1
290
     0
176
     1
290
     1
176
     1
290
     1
176
     1
290
     0
176
     1
290
     0
176
     1
290
     0
176
     1
290
     0
176
     1
290
     0
176
     1
290
     0
176
     1
 90
       50
176
     1
 40
0.0
176
     1
 40
1.0
176
     1
 90
        0
176
     1
 62
    18
420
        0
176
     1
 90
       50
176
     1
 90
        3
176
     1
 62
     5
420
      255
176
     1
290
     0
176
     1
 90
       50
176
     1
 90
       50
176
     1
 90
       50
176
     1
290
     0
176
     1
 90
       50
176
     1
 62
   256
176
     0
 40
1.0
176
     0
 90
        2
176
     1
  1
strokes_ogs.tif
176
     1
290
     0
176
     1
 40
1.0
176
     1
 40
1.0
176
     1
  0
VISUALSTYLE
  5
40
102
{ACAD_REACTORS
330
29
102
}
330
29
100
AcDbVisualStyle
  2
OverhangOff
 70
    21
177
     3
291
     1
 70
    58
 90
        2
176
     0
 90
        2
176
     0
 90
        0
176
     0
 90
        0
176
     0
 40
0.6
176
     0
 40
30.0
176
     0
 62
     7
420
 16777215
176
     0
 90
        1
176
     0
 90
        4
176
     0
 62
     7
176
     0
 62
   257
176
     0
 90
        1
176
     0
 90
        1
176
     0
 40
1.0
176
     0
 90
        9
176
     2
 62
     7
176
     0
 40
1.0
176
     0
 90
        1
176
     0
 90
        6
176
     0
 90
        2
176
     0
 62
     7
176
     0
 90
        5
176
     0
 90
        0
176
     0
 90
        0
176
     0
290
     0
176
     0
 90
        1
176
     0
 40
0.0
176
     0
 90
        0
176
     0
290
     0
176
     0
290
     1
176
     0
290
     1
176
     0
290
     0
176
     0
290
     0
176
     0
290
     0
176
     0
290
     0
176
     0
290
     0
176
     0
290
     0
176
     0
 90
       50
176
     0
 40
0.0
176
     0
 40
1.0
176
     0
 90
        0
176
     0
 62
    18
420
        0
176
     0
 90
       50
176
     0
 90
        3
176
     0
 62
     5
420
      255
176
     0
290
     0
176
     0
 90
       50
176
     0
 90
       50
176
     0
 90
       50
176
     0
290
     0
176
     0
 90
       50
176
     0
 62
   256
176
     0
 40
1.0
176
     0
 90
        2
176
     0
  1
strokes_ogs.tif
176
     0
290
     0
176
     0
 40
1.0
176
     0
 40
1.0
176
     0
  0
VISUALSTYLE
  5
33
102
{ACAD_REACTORS
330
29
102
}
330
29
100
AcDbVisualStyle
  2
Realistic
 70
     8
177
     3
291
     0
 70
    58
 90
        2
176
     1
 90
        3
176
     1
 90
        0
176
     1
 90
        2
176
     1
 40
0.6
176
     1
 40
30.0
176
     1
 62
     7
420
 16777215
176
     1
 90
        0
176
     1
 90
        0
176
     1
 62
     7
176
     1
 62
   257
176
     1
 90
        1
176
     1
 90
        1
176
     1
 40
1.0
176
     1
 90
        8
176
     1
 62
   257
176
     1
 40
1.0
176
     1
 90
        1
176
     1
 90
        6
176
     1
 90
        2
176
     1
 62
     7
176
     1
 90
        3
176
     1
 90
        0
176
     1
 90
        0
176
     1
290
     0
176
     1
 90
       13
176
     1
 40
0.0
176
     1
 90
        0
176
     1
290
     0
176
     1
290
     1
176
     1
290
     1
176
     1
290
     0
176
     1
290
     0
176
     1
290
     0
176
     1
290
     0
176
     1
290
     0
176
     1
290
     0
176
     1
 90
       50
176
     1
 40
0.0
176
     1
 40
1.0
176
     1
 90
        0
176
     1
 62
    18
420
        0
176
     1
 90
       50
176
     1
 90
        3
176
     1
 62
     5
420
      255
176
     1
290
     0
176
     1
 90
       50
176
     1
 90
       50
176
     1
 90
       50
176
     1
290
     0
176
     1
 90
       50
176
     1
 62
   256
176
     0
 40
1.0
176
     0
 90
        2
176
     1
  1
strokes_ogs.tif
176
     1
290
     0
176
     1
 40
1.0
176
     1
 40
1.0
176
     1
  0
VISUALSTYLE
  5
3E
102
{ACAD_REACTORS
330
29
102
}
330
29
100
AcDbVisualStyle
  2
Shaded
 70
    27
177
     3
291
     0
 70
    58
 90
        2
176
     1
 90
        2
176
     1
 90
        1
176
     1
 90
        2
176
     1
 40
0.6
176
     1
 40
30.0
176
     1
 62
     7
420
 16777215
176
     1
 90
        0
176
     1
 90
        4
176
     1
 62
     7
176
     1
 62
   257
176
     1
 90
        1
176
     1
 90
        1
176
     1
 40
1.0
176
     1
 90
        8
176
     1
 62
   257
176
     1
 40
1.0
176
     1
 90
        1
176
     1
 90
        6
176
     1
 90
        2
176
     1
 62
     8
420
  7895160
176
     1
 90
        3
176
     1
 90
        0
176
     1
 90
        0
176
     1
290
     0
176
     1
 90
        5
176
     1
 40
0.0
176
     1
 90
        0
176
     1
290
     0
176
     1
290
     1
176
     1
290
     1
176
     1
290
     0
176
     1
290
     0
176
     1
290
     0
176
     1
290
     0
176
     1
290
     0
176
     1
290
     0
176
     1
 90
       50
176
     1
 40
0.0
176
     1
 40
1.0
176
     1
 90
        0
176
     1
 62
    18
420
        0
176
     1
 90
       50
176
     1
 90
        3
176
     1
 62
     5
420
      255
176
     1
290
     0
176
     1
 90
       50
176
     1
 90
       50
176
     1
 90
       50
176
     1
290
     0
176
     1
 90
       50
176
     1
 62
   256
176
     0
 40
1.0
176
     0
 90
        2
176
     1
  1
strokes_ogs.tif
176
     1
290
     0
176
     1
 40
1.0
176
     1
 40
1.0
176
     1
  0
VISUALSTYLE
  5
3D
102
{ACAD_REACTORS
330
29
102
}
330
29
100
AcDbVisualStyle
  2
Shaded with edges
 70
    26
177
     3
291
     0
 70
    58
 90
        2
176
     1
 90
        2
176
     1
 90
        1
176
     1
 90
        2
176
     1
 40
0.6
176
     1
 40
30.0
176
     1
 62
     7
420
 16777215
176
     1
 90
        1
176
     1
 90
        2
176
     1
 62
     7
176
     1
 62
   257
176
     1
 90
        2
176
     1
 90
        1
176
     1
 40
1.0
176
     1
 90
        8
176
     1
 62
   257
176
     1
 40
1.0
176
     1
 90
        1
176
     1
 90
        6
176
     1
 90
        2
176
     1
 62
     7
176
     1
 90
        3
176
     1
 90
        0
176
     1
 90
        0
176
     1
290
     0
176
     1
 90
        5
176
     1
 40
0.0
176
     1
 90
        0
176
     1
290
     0
176
     1
290
     1
176
     1
290
     1
176
     1
290
     0
176
     1
290
     0
176
     1
290
     0
176
     1
290
     0
176
     1
290
     0
176
     1
290
     0
176
     1
 90
       50
176
     1
 40
0.0
176
     1
 40
1.0
176
     1
 90
        0
176
     1
 62
    18
420
        0
176
     1
 90
       50
176
     1
 90
        3
176
     1
 62
     5
420
      255
176
     1
290
     0
176
     1
 90
       50
176
     1
 90
       50
176
     1
 90
       50
176
     1
290
     0
176
     1
 90
       50
176
     1
 62
   256
176
     0
 40
1.0
176
     0
 90
        2
176
     1
  1
strokes_ogs.tif
176
     1
290
     0
176
     1
 40
1.0
176
     1
 40
1.0
176
     1
  0
VISUALSTYLE
  5
3A
102
{ACAD_REACTORS
330
29
102
}
330
29
100
AcDbVisualStyle
  2
Shades of Gray
 70
    23
177
     3
291
     0
 70
    58
 90
        2
176
     1
 90
        2
176
     1
 90
        3
176
     1
 90
        0
176
     1
 40
0.6
176
     1
 40
30.0
176
     1
 62
     7
420
 16777215
176
     1
 90
        2
176
     1
 90
        2
176
     1
 62
     7
176
     1
 62
     7
176
     1
 90
        1
176
     1
 90
        1
176
     1
 40
40.0
176
     1
 90
        8
176
     1
 62
     7
176
     1
 40
1.0
176
     1
 90
        1
176
     1
 90
        6
176
     1
 90
        2
176
     1
 62
     7
176
     1
 90
        3
176
     1
 90
        0
176
     1
 90
        0
176
     1
290
     0
176
     1
 90
        1
176
     1
 40
0.0
176
     1
 90
        0
176
     1
290
     0
176
     1
290
     1
176
     1
290
     1
176
     1
290
     0
176
     1
290
     0
176
     1
290
     0
176
     1
290
     0
176
     1
290
     0
176
     1
290
     0
176
     1
 90
       50
176
     1
 40
0.0
176
     1
 40
1.0
176
     1
 90
        0
176
     1
 62
    18
420
        0
176
     1
 90
       50
176
     1
 90
        3
176
     1
 62
     5
420
      255
176
     1
290
     0
176
     1
 90
       50
176
     1
 90
       50
176
     1
 90
       50
176
     1
290
     0
176
     1
 90
       50
176
     1
 62
   256
176
     0
 40
1.0
176
     0
 90
        2
176
     1
  1
strokes_ogs.tif
176
     1
290
     0
176
     1
 40
1.0
176
     1
 40
1.0
176
     1
  0
VISUALSTYLE
  5
3B
102
{ACAD_REACTORS
330
29
102
}
330
29
100
AcDbVisualStyle
  2
Sketchy
 70
    24
177
     3
291
     0
 70
    58
 90
        1
176
     1
 90
        2
176
     1
 90
        2
176
     1
 90
        0
176
     1
 40
0.6
176
     1
 40
30.0
176
     1
 62
     7
420
 16777215
176
     1
 90
        2
176
     1
 90
        2
176
     1
 62
     7
176
     1
 62
     7
176
     1
 90
        1
176
     1
 90
        1
176
     1
 40
40.0
176
     1
 90
       11
176
     1
 62
     7
176
     1
 40
1.0
176
     1
 90
        1
176
     1
 90
        6
176
     1
 90
        2
176
     1
 62
     7
176
     1
 90
        6
176
     1
 90
        0
176
     1
 90
        0
176
     1
290
     0
176
     1
 90
        1
176
     1
 40
0.0
176
     1
 90
        0
176
     1
290
     0
176
     1
290
     1
176
     1
290
     1
176
     1
290
     0
176
     1
290
     0
176
     1
290
     0
176
     1
290
     0
176
     1
290
     0
176
     1
290
     0
176
     1
 90
       50
176
     1
 40
0.0
176
     1
 40
1.0
176
     1
 90
        0
176
     1
 62
    18
420
        0
176
     1
 90
       50
176
     1
 90
        3
176
     1
 62
     5
420
      255
176
     1
290
     0
176
     1
 90
       50
176
     1
 90
       50
176
     1
 90
       50
176
     1
290
     0
176
     1
 90
       50
176
     1
 62
   256
176
     0
 40
1.0
176
     0
 90
        2
176
     1
  1
strokes_ogs.tif
176
     1
290
     0
176
     1
 40
1.0
176
     1
 40
1.0
176
     1
  0
VISUALSTYLE
  5
36
102
{ACAD_REACTORS
330
29
102
}
330
29
100
AcDbVisualStyle
  2
Thicken
 70
    13
177
     3
291
     1
 70
    58
 90
        2
176
     1
 90
        2
176
     1
 90
        0
176
     1
 90
        0
176
     1
 40
0.6
176
     1
 40
30.0
176
     1
 62
     7
420
 16777215
176
     1
 90
        1
176
     1
 90
        4
176
     1
 62
     7
176
     1
 62
   257
176
     1
 90
        1
176
     1
 90
        1
176
     1
 40
1.0
176
     1
 90
       12
176
     1
 62
     7
176
     1
 40
1.0
176
     1
 90
        1
176
     1
 90
        6
176
     1
 90
        2
176
     1
 62
     7
176
     1
 90
        5
176
     1
 90
        0
176
     1
 90
        0
176
     1
290
     0
176
     1
 90
        1
176
     1
 40
0.0
176
     1
 90
        0
176
     1
290
     0
176
     1
290
     1
176
     1
290
     1
176
     1
290
     0
176
     1
290
     0
176
     1
290
     0
176
     1
290
     0
176
     1
290
     0
176
     1
290
     0
176
     1
 90
       50
176
     1
 40
0.0
176
     1
 40
1.0
176
     1
 90
        0
176
     1
 62
    18
420
        0
176
     1
 90
       50
176
     1
 90
        3
176
     1
 62
     5
420
      255
176
     1
290
     0
176
     1
 90
       50
176
     1
 90
       50
176
     1
 90
       50
176
     1
290
     0
176
     1
 90
       50
176
     1
 62
   256
176
     0
 40
1.0
176
     0
 90
        2
176
     1
  1
strokes_ogs.tif
176
     1
290
     0
176
     1
 40
1.0
176
     1
 40
1.0
176
     1
  0
VISUALSTYLE
  5
30
102
{ACAD_REACTORS
330
29
102
}
330
29
100
AcDbVisualStyle
  2
Wireframe
 70
     5
177
     3
291
     0
 70
    58
 90
        0
176
     1
 90
        2
176
     1
 90
        0
176
     1
 90
        0
176
     1
 40
0.6
176
     1
 40
30.0
176
     1
 62
     7
420
 16777215
176
     1
 90
        1
176
     1
 90
        4
176
     1
 62
     7
176
     1
 62
   257
176
     1
 90
        1
176
     1
 90
        1
176
     1
 40
1.0
176
     1
 90
        0
176
     1
 62
   257
176
     1
 40
1.0
176
     1
 90
        1
176
     1
 90
        6
176
     1
 90
        2
176
     1
 62
     7
176
     1
 90
        3
176
     1
 90
        0
176
     1
 90
        0
176
     1
290
     0
176
     1
 90
        1
176
     1
 40
0.0
176
     1
 90
        0
176
     1
290
     0
176
     1
290
     1
176
     1
290
     1
176
     1
290
     0
176
     1
290
     0
176
     1
290
     0
176
     1
290
     0
176
     1
290
     0
176
     1
290
     0
176
     1
 90
       50
176
     1
 40
0.0
176
     1
 40
1.0
176
     1
 90
        0
176
     1
 62
    18
420
        0
176
     1
 90
       50
176
     1
 90
        3
176
     1
 62
     5
420
      255
176
     1
290
     0
176
     1
 90
       50
176
     1
 90
       50
176
     1
 90
       50
176
     1
290
     0
176
     1
 90
       50
176
     1
 62
   256
176
     0
 40
1.0
176
     0
 90
        2
176
     1
  1
strokes_ogs.tif
176
     1
290
     0
176
     1
 40
1.0
176
     1
 40
1.0
176
     1
  0
VISUALSTYLE
  5
3C
102
{ACAD_REACTORS
330
29
102
}
330
29
100
AcDbVisualStyle
  2
X-Ray
 70
    25
177
     3
291
     0
 70
    58
 90
        2
176
     1
 90
        2
176
     1
 90
        1
176
     1
 90
        1
176
     1
 40
0.5
176
     1
 40
30.0
176
     1
 62
     7
420
 16777215
176
     1
 90
        1
176
     1
 90
        0
176
     1
 62
     7
176
     1
 62
   257
176
     1
 90
        1
176
     1
 90
        1
176
     1
 40
1.0
176
     1
 90
        8
176
     1
 62
     7
176
     1
 40
1.0
176
     1
 90
        1
176
     1
 90
        6
176
     1
 90
        2
176
     1
 62
     7
176
     1
 90
        3
176
     1
 90
        0
176
     1
 90
        0
176
     1
290
     0
176
     1
 90
       13
176
     1
 40
0.0
176
     1
 90
        0
176
     1
290
     0
176
     1
290
     1
176
     1
290
     1
176
     1
290
     0
176
     1
290
     0
176
     1
290
     0
176
     1
290
     0
176
     1
290
     0
176
     1
290
     0
176
     1
 90
       50
176
     1
 40
0.0
176
     1
 40
1.0
176
     1
 90
        0
176
     1
 62
    18
420
        0
176
     1
 90
       50
176
     1
 90
        3
176
     1
 62
     5
420
      255
176
     1
290
     0
176
     1
 90
       50
176
     1
 90
       50
176
     1
 90
       50
176
     1
290
     0
176
     1
 90
       50
176
     1
 62
   256
176
     0
 40
1.0
176
     0
 90
        2
176
     1
  1
strokes_ogs.tif
176
     1
290
     0
176
     1
 40
1.0
176
     1
 40
1.0
176
     1
  0
DICTIONARYVAR
  5
FB
102
{ACAD_REACTORS
330
F6
102
}
330
F6
100
DictionaryVariables
280
     0
  1
1:1
  0
DICTIONARYVAR
  5
F8
102
{ACAD_REACTORS
330
F6
102
}
330
F6
100
DictionaryVariables
280
     0
  1
STANDARD
  0
DICTIONARYVAR
  5
F7
102
{ACAD_REACTORS
330
F6
102
}
330
F6
100
DictionaryVariables
280
     0
  1
STANDARD
  0
DICTIONARYVAR
  5
F9
102
{ACAD_REACTORS
330
F6
102
}
330
F6
100
DictionaryVariables
280
     0
  1
Imperial24
  0
DICTIONARYVAR
  5
FA
102
{ACAD_REACTORS
330
F6
102
}
330
F6
100
DictionaryVariables
280
     0
  1
Imperial24
  0
DICTIONARY
  5
1A
330
19
100
AcDbDictionary
280
     1
281
     1
  3
BUMPTILE
360
1C
  3
DIFFUSETILE
360
1B
  3
OPACITYTILE
360
1F
  3
REFLECTIONTILE
360
1E
  3
REFRACTIONTILE
360
20
  3
SPECULARTILE
360
1D
  0
DICTIONARY
  5
12
330
11
100
AcDbDictionary
280
     1
281
     1
  3
BUMPTILE
360
14
  3
DIFFUSETILE
360
13
  3
OPACITYTILE
360
17
  3
REFLECTIONTILE
360
16
  3
REFRACTIONTILE
360
18
  3
SPECULARTILE
360
15
  0
DICTIONARY
  5
22
330
21
100
AcDbDictionary
280
     1
281
     1
  3
BUMPTILE
360
24
  3
DIFFUSETILE
360
23
  3
OPACITYTILE
360
27
  3
REFLECTIONTILE
360
26
  3
REFRACTIONTILE
360
28
  3
SPECULARTILE
360
25
  0
DICTIONARY
  5
FC
330
65
100
AcDbDictionary
280
     1
281
     1
  3
ACAD_ROUNDTRIP_2008_TABLESTYLE_CELLSTYLEMAP
360
FD
  0
XRECORD
  5
1C
102
{ACAD_REACTORS
330
1A
102
}
330
1A
100
AcDbXrecord
280
     1
270
     1
271
     1
  0
XRECORD
  5
1B
102
{ACAD_REACTORS
330
1A
102
}
330
1A
100
AcDbXrecord
280
     1
270
     1
271
     1
  0
XRECORD
  5
1F
102
{ACAD_REACTORS
330
1A
102
}
330
1A
100
AcDbXrecord
280
     1
270
     1
271
     1
  0
XRECORD
  5
1E
102
{ACAD_REACTORS
330
1A
102
}
330
1A
100
AcDbXrecord
280
     1
270
     1
271
     1
  0
XRECORD
  5
20
102
{ACAD_REACTORS
330
1A
102
}
330
1A
100
AcDbXrecord
280
     1
270
     1
271
     1
  0
XRECORD
  5
1D
102
{ACAD_REACTORS
330
1A
102
}
330
1A
100
AcDbXrecord
280
     1
270
     1
271
     1
  0
XRECORD
  5
14
102
{ACAD_REACTORS
330
12
102
}
330
12
100
AcDbXrecord
280
     1
270
     1
271
     1
  0
XRECORD
  5
13
102
{ACAD_REACTORS
330
12
102
}
330
12
100
AcDbXrecord
280
     1
270
     1
271
     1
  0
XRECORD
  5
17
102
{ACAD_REACTORS
330
12
102
}
330
12
100
AcDbXrecord
280
     1
270
     1
271
     1
  0
XRECORD
  5
16
102
{ACAD_REACTORS
330
12
102
}
330
12
100
AcDbXrecord
280
     1
270
     1
271
     1
  0
XRECORD
  5
18
102
{ACAD_REACTORS
330
12
102
}
330
12
100
AcDbXrecord
280
     1
270
     1
271
     1
  0
XRECORD
  5
15
102
{ACAD_REACTORS
330
12
102
}
330
12
100
AcDbXrecord
280
     1
270
     1
271
     1
  0
XRECORD
  5
24
102
{ACAD_REACTORS
330
22
102
}
330
22
100
AcDbXrecord
280
     1
270
     1
271
     1
  0
XRECORD
  5
23
102
{ACAD_REACTORS
330
22
102
}
330
22
100
AcDbXrecord
280
     1
270
     1
271
     1
  0
XRECORD
  5
27
102
{ACAD_REACTORS
330
22
102
}
330
22
100
AcDbXrecord
280
     1
270
     1
271
     1
  0
XRECORD
  5
26
102
{ACAD_REACTORS
330
22
102
}
330
22
100
AcDbXrecord
280
     1
270
     1
271
     1
  0
XRECORD
  5
28
102
{ACAD_REACTORS
330
22
102
}
330
22
100
AcDbXrecord
280
     1
270
     1
271
     1
  0
XRECORD
  5
25
102
{ACAD_REACTORS
330
22
102
}
330
22
100
AcDbXrecord
280
     1
270
     1
271
     1
  0
CELLSTYLEMAP
  5
FD
102
{ACAD_REACTORS
330
FC
102
}
330
FC
100
AcDbCellStyleMap
 90
        3
300
CELLSTYLE
  1
TABLEFORMAT_BEGIN
 90
        5
170
     1
 91
        0
 92
    32768
 62
   257
 93
        1
300
CONTENTFORMAT
  1
CONTENTFORMAT_BEGIN
 90
        0
 91
        0
 92
      512
 93
        0
300

 40
0.0
140
1.0
 94
        5
 62
     0
340
55
144
0.25
309
CONTENTFORMAT_END
171
     0
 94
        0
309
TABLEFORMAT_END
  1
CELLSTYLE_BEGIN
 90
        1
 91
        1
300
_TITLE
309
CELLSTYLE_END
300
CELLSTYLE
  1
TABLEFORMAT_BEGIN
 90
        5
170
     1
 91
        0
 92
        0
 62
   257
 93
        1
300
CONTENTFORMAT
  1
CONTENTFORMAT_BEGIN
 90
        0
 91
        0
 92
      512
 93
        0
300

 40
0.0
140
1.0
 94
        5
 62
     0
340
55
144
0.18
309
CONTENTFORMAT_END
171
     0
 94
        0
309
TABLEFORMAT_END
  1
CELLSTYLE_BEGIN
 90
        2
 91
        1
300
_HEADER
309
CELLSTYLE_END
300
CELLSTYLE
  1
TABLEFORMAT_BEGIN
 90
        5
170
     1
 91
        0
 92
        0
 62
   257
 93
        1
300
CONTENTFORMAT
  1
CONTENTFORMAT_BEGIN
 90
        0
 91
        0
 92
      512
 93
        0
300

 40
0.0
140
1.0
 94
        2
 62
     0
340
55
144
0.18
309
CONTENTFORMAT_END
171
     0
 94
        0
309
TABLEFORMAT_END
  1
CELLSTYLE_BEGIN
 90
        3
 91
        2
300
_DATA
309
CELLSTYLE_END
  0
ENDSEC
  0
EOF
